<svg width="137" height="91" viewBox="0 0 137 91" fill="none" xmlns="http://www.w3.org/2000/svg">
<path d="M0 82.3575C0 77.5844 3.86936 73.7151 8.64246 73.7151H128.06C132.833 73.7151 136.703 77.5844 136.703 82.3575V82.3575C136.703 87.1306 132.833 91 128.06 91H8.64247C3.86937 91 0 87.1306 0 82.3575V82.3575Z" fill="#505050"/>
<path d="M0 8.64246C0 3.86936 3.86936 0 8.64246 0H128.06C132.833 0 136.703 3.86936 136.703 8.64246V8.64246C136.703 13.4156 132.833 17.2849 128.06 17.2849H8.64247C3.86937 17.2849 0 13.4156 0 8.64246V8.64246Z" fill="#505050"/>
<path d="M0 45.5C0 40.7269 3.86936 36.8575 8.64246 36.8575H128.06C132.833 36.8575 136.703 40.7269 136.703 45.5V45.5C136.703 50.2731 132.833 54.1425 128.06 54.1425H8.64247C3.86937 54.1425 0 50.2731 0 45.5V45.5Z" fill="#505050"/>
</svg>
