<svg width="268" height="224" viewBox="0 0 268 224" fill="none" xmlns="http://www.w3.org/2000/svg">
<path d="M166.027 31.7333C166.027 39.7413 163.103 47.0564 158.277 52.64H208.363C213.445 52.64 217.566 56.8187 217.566 61.9733V113.402C222.857 109.247 229.498 106.773 236.709 106.773C253.99 106.773 268 120.981 268 138.507C268 156.033 253.99 170.24 236.709 170.24C229.498 170.24 222.857 167.767 217.566 163.611V214.667C217.566 219.821 213.445 224 208.363 224H180.851C172.876 224 167.5 214.428 167.5 206.453V206.453C167.5 188.927 153.49 174.72 136.209 174.72C118.927 174.72 104.918 188.927 104.918 206.453V206.453C104.918 214.428 99.5413 224 91.5668 224H57.7967C52.7139 224 48.5934 219.821 48.5934 214.667V164.952C43.6375 168.293 37.6886 170.24 31.2912 170.24C14.0095 170.24 0 156.033 0 138.507C0 120.981 14.0095 106.773 31.2912 106.773C37.6886 106.773 43.6375 108.72 48.5934 112.062V61.9733C48.5934 56.8187 52.7139 52.64 57.7967 52.64H111.195C106.37 47.0564 103.445 39.7413 103.445 31.7333C103.445 14.2075 117.455 0 134.736 0C152.018 0 166.027 14.2075 166.027 31.7333Z" fill="#2C2321"/>
</svg>
