<svg width="254" height="227" viewBox="0 0 254 227" fill="none" xmlns="http://www.w3.org/2000/svg">
<path d="M104.706 12.8041C114.529 -4.20971 139.086 -4.20966 148.909 12.8041L250.133 188.129C259.956 205.142 247.677 226.41 228.031 226.41H25.5841C5.93826 226.41 -6.34032 205.142 3.4826 188.129L104.706 12.8041Z" fill="#F7EE0E"/>
<path d="M120.582 25.9373C123.349 21.1447 130.267 21.1447 133.034 25.9373L230.821 195.311C233.588 200.103 230.13 206.094 224.596 206.094H29.02C23.486 206.094 20.0272 200.103 22.7942 195.311L120.582 25.9373Z" fill="#F7EE0E"/>
<path fill-rule="evenodd" clip-rule="evenodd" d="M139.259 22.3429L237.047 191.716C242.581 201.302 235.663 213.283 224.595 213.283H29.0199C17.9518 213.283 11.0343 201.301 16.5683 191.716L114.356 22.3429C119.89 12.7576 133.725 12.7577 139.259 22.3429ZM133.033 25.9374C130.266 21.1447 123.349 21.1447 120.582 25.9373L22.7941 195.311C20.0271 200.103 23.4859 206.094 29.0199 206.094H224.595C230.129 206.094 233.588 200.103 230.821 195.311L133.033 25.9374Z" fill="black"/>
<path d="M135.124 167.043C135.124 171.636 131.4 175.359 126.808 175.359C122.215 175.359 118.492 171.636 118.492 167.043C118.492 162.45 122.215 158.727 126.808 158.727C131.4 158.727 135.124 162.45 135.124 167.043Z" fill="black"/>
<path d="M120.48 80.4591C120.48 76.9642 123.313 74.1309 126.808 74.1309V74.1309C130.303 74.1309 133.136 76.9642 133.136 80.4591V133.419C133.136 136.914 130.303 139.747 126.808 139.747V139.747C123.313 139.747 120.48 136.914 120.48 133.419V80.4591Z" fill="black"/>
</svg>
