<svg width="2220" height="740" viewBox="0 0 2220 740" fill="none" xmlns="http://www.w3.org/2000/svg">
<path d="M0 0H2220V740H0V0Z" fill="#DDF8FA"/>
<rect x="777" y="162" width="115.715" height="115.715" rx="17" fill="#9C9C9C"/>
<rect x="777" y="175.418" width="126.75" height="115.715" rx="17" fill="#9C9C9C"/>
<rect x="788.035" y="162" width="115.715" height="115.715" rx="17" fill="#EBEBEB"/>
<path d="M813.592 257.477L838.08 186.382H847.707L872.196 257.477H864.642L841.388 190.431H844.251L821.145 257.477H813.592ZM824.503 240.247V233.433H861.235V240.247H824.503Z" fill="#6E6E6E"/>
<rect x="1407.43" y="346.001" width="115.715" height="115.715" rx="17" fill="#9C9C9C"/>
<rect x="1407.43" y="359.419" width="126.75" height="115.715" rx="17" fill="#9C9C9C"/>
<rect x="1418.46" y="346.001" width="115.715" height="115.715" rx="17" fill="#EBEBEB"/>
<path d="M1444.02 441.478L1468.51 370.383H1478.14L1502.62 441.478H1495.07L1471.82 374.431H1474.68L1451.57 441.478H1444.02ZM1454.93 424.247V417.434H1491.66V424.247H1454.93Z" fill="#6E6E6E"/>
<rect x="1092.21" y="162" width="115.715" height="115.715" rx="17" fill="#9C9C9C"/>
<rect x="1092.21" y="175.418" width="126.75" height="115.715" rx="17" fill="#9C9C9C"/>
<rect x="1103.25" y="162" width="115.715" height="115.715" rx="17" fill="#EBEBEB"/>
<path d="M1136.06 257.483V186.388H1180.49V193.349H1143.32V217.936H1174.57V224.898H1143.32V250.522H1180.49V257.483H1136.06Z" fill="#6E6E6E"/>
<rect x="1722.64" y="162" width="115.715" height="115.715" rx="17" fill="#9C9C9C"/>
<rect x="1722.64" y="175.418" width="126.75" height="115.715" rx="17" fill="#9C9C9C"/>
<rect x="1733.68" y="162" width="115.715" height="115.715" rx="17" fill="#EBEBEB"/>
<path d="M1766.49 257.483V186.388H1810.92V193.349H1773.75V217.936H1805V224.898H1773.75V250.522H1810.92V257.483H1766.49Z" fill="#6E6E6E"/>
<rect x="1722.64" y="346.001" width="115.715" height="115.715" rx="17" fill="#9C9C9C"/>
<rect x="1722.64" y="359.419" width="126.75" height="115.715" rx="17" fill="#9C9C9C"/>
<rect x="1733.68" y="346.001" width="115.715" height="115.715" rx="17" fill="#EBEBEB"/>
<path d="M1766.49 441.484V370.389H1810.92V377.351H1773.75V401.938H1805V408.899H1773.75V434.523H1810.92V441.484H1766.49Z" fill="#6E6E6E"/>
<rect x="1880.25" y="346.001" width="115.715" height="115.715" rx="17" fill="#9C9C9C"/>
<rect x="1880.25" y="359.419" width="126.75" height="115.715" rx="17" fill="#9C9C9C"/>
<rect x="1891.29" y="346.001" width="115.715" height="115.715" rx="17" fill="#EBEBEB"/>
<path d="M1943.28 443.432L1918.8 372.337H1926.35L1948.02 435.187L1969.85 372.337H1977.4L1952.91 443.432H1943.28Z" fill="#6E6E6E"/>
<rect x="1880.25" y="162" width="115.715" height="115.715" rx="17" fill="#9C9C9C"/>
<rect x="1880.25" y="175.418" width="126.75" height="115.715" rx="17" fill="#9C9C9C"/>
<rect x="1891.29" y="162" width="115.715" height="115.715" rx="17" fill="#EBEBEB"/>
<path d="M1938.95 258.643C1934.21 258.643 1930.15 257.326 1926.76 254.693C1923.37 252.06 1921.08 248.538 1919.89 244.127L1927.15 242.399C1927.74 245 1929.11 247.205 1931.25 249.015C1933.42 250.793 1935.97 251.681 1938.9 251.681C1940.74 251.681 1942.6 251.237 1944.48 250.348C1946.39 249.46 1947.89 247.995 1948.97 245.954C1949.7 244.539 1950.11 243.008 1950.21 241.363C1950.34 239.684 1950.4 237.676 1950.4 235.339V186.116H1957.71V235.339C1957.71 237.314 1957.69 239.108 1957.66 240.721C1957.63 242.301 1957.45 243.831 1957.12 245.312C1956.82 246.761 1956.25 248.225 1955.39 249.706C1953.68 252.702 1951.38 254.94 1948.48 256.421C1945.62 257.902 1942.44 258.643 1938.95 258.643Z" fill="#6E6E6E"/>
<rect x="1249.82" y="346.001" width="115.715" height="115.715" rx="17" fill="#9C9C9C"/>
<rect x="1249.82" y="359.419" width="126.75" height="115.715" rx="17" fill="#9C9C9C"/>
<rect x="1260.86" y="346.001" width="115.715" height="115.715" rx="17" fill="#EBEBEB"/>
<path d="M1308.52 442.644C1303.78 442.644 1299.72 441.328 1296.33 438.695C1292.94 436.061 1290.65 432.539 1289.46 428.129L1296.72 426.401C1297.31 429.001 1298.68 431.206 1300.82 433.017C1302.99 434.794 1305.54 435.683 1308.47 435.683C1310.32 435.683 1312.18 435.238 1314.05 434.35C1315.96 433.461 1317.46 431.996 1318.54 429.956C1319.27 428.54 1319.68 427.01 1319.78 425.364C1319.91 423.686 1319.98 421.678 1319.98 419.341V370.117H1327.28V419.341C1327.28 421.316 1327.27 423.109 1327.23 424.722C1327.2 426.302 1327.02 427.833 1326.69 429.314C1326.39 430.762 1325.82 432.227 1324.96 433.708C1323.25 436.703 1320.95 438.941 1318.05 440.423C1315.19 441.904 1312.01 442.644 1308.52 442.644Z" fill="#6E6E6E"/>
<rect x="1565.04" y="346.001" width="115.715" height="115.715" rx="17" fill="#9C9C9C"/>
<rect x="1565.04" y="359.419" width="126.75" height="115.715" rx="17" fill="#9C9C9C"/>
<rect x="1576.07" y="346.001" width="115.715" height="115.715" rx="17" fill="#EBEBEB"/>
<path d="M1623.74 442.644C1619 442.644 1614.93 441.328 1611.54 438.695C1608.15 436.061 1605.86 432.539 1604.68 428.129L1611.94 426.401C1612.53 429.001 1613.89 431.206 1616.03 433.017C1618.21 434.794 1620.76 435.683 1623.69 435.683C1625.53 435.683 1627.39 435.238 1629.27 434.35C1631.17 433.461 1632.67 431.996 1633.76 429.956C1634.48 428.54 1634.89 427.01 1634.99 425.364C1635.12 423.686 1635.19 421.678 1635.19 419.341V370.117H1642.5V419.341C1642.5 421.316 1642.48 423.109 1642.45 424.722C1642.42 426.302 1642.23 427.833 1641.9 429.314C1641.61 430.762 1641.03 432.227 1640.18 433.708C1638.47 436.703 1636.16 438.941 1633.26 440.423C1630.4 441.904 1627.23 442.644 1623.74 442.644Z" fill="#6E6E6E"/>
<rect x="777" y="346.001" width="115.715" height="115.715" rx="17" fill="#9C9C9C"/>
<rect x="777" y="359.419" width="126.75" height="115.715" rx="17" fill="#9C9C9C"/>
<rect x="788.035" y="346.001" width="115.715" height="115.715" rx="17" fill="#EBEBEB"/>
<path d="M844.01 444.673C839.007 444.673 834.498 443.801 830.483 442.056C826.467 440.312 823.044 437.827 820.213 434.601C817.416 431.375 815.276 427.491 813.795 422.949C812.314 418.374 811.573 413.272 811.573 407.644C811.573 400.205 812.857 393.721 815.424 388.192C818.024 382.629 821.744 378.317 826.582 375.256C831.421 372.195 837.23 370.665 844.01 370.665C851.581 370.665 857.736 372.442 862.475 375.997C867.248 379.519 870.572 384.258 872.449 390.216L865.142 391.993C863.595 387.648 861.044 384.176 857.489 381.576C853.967 378.975 849.573 377.675 844.307 377.675C838.744 377.642 834.12 378.893 830.433 381.428C826.747 383.929 823.966 387.451 822.089 391.993C820.246 396.502 819.308 401.719 819.275 407.644C819.242 413.569 820.147 418.786 821.991 423.295C823.867 427.771 826.665 431.293 830.384 433.86C834.103 436.395 838.744 437.678 844.307 437.711C849.408 437.711 853.621 436.724 856.946 434.749C860.27 432.774 862.788 429.944 864.5 426.257C866.244 422.571 867.232 418.21 867.462 413.174H851.071V406.953H875.065C875.164 407.71 875.213 408.516 875.213 409.372C875.246 410.195 875.263 410.787 875.263 411.149C875.263 417.568 874.111 423.311 871.807 428.38C869.503 433.416 866.03 437.399 861.389 440.328C856.781 443.225 850.988 444.673 844.01 444.673Z" fill="#6E6E6E"/>
<rect x="934.607" y="346.001" width="115.715" height="115.715" rx="17" fill="#9C9C9C"/>
<rect x="934.607" y="359.419" width="126.75" height="115.715" rx="17" fill="#9C9C9C"/>
<rect x="945.642" y="346.001" width="115.715" height="115.715" rx="17" fill="#EBEBEB"/>
<path d="M1001.65 443.978C996.218 443.978 991.412 442.858 987.232 440.62C983.085 438.382 979.826 435.222 977.456 431.141C975.087 427.06 973.902 422.287 973.902 416.823V371.45L981.209 371.401V415.885C981.209 419.571 981.834 422.764 983.085 425.463C984.336 428.129 985.965 430.334 987.973 432.079C990.013 433.791 992.235 435.058 994.638 435.881C997.04 436.703 999.377 437.115 1001.65 437.115C1003.95 437.115 1006.31 436.703 1008.71 435.881C1011.11 435.058 1013.32 433.791 1015.32 432.079C1017.33 430.334 1018.96 428.129 1020.21 425.463C1021.46 422.764 1022.09 419.571 1022.09 415.885V371.401H1029.4V416.823C1029.4 422.287 1028.21 427.06 1025.84 431.141C1023.47 435.189 1020.2 438.349 1016.02 440.62C1011.87 442.858 1007.08 443.978 1001.65 443.978Z" fill="#6E6E6E"/>
<rect x="1565.04" y="162" width="115.715" height="115.715" rx="17" fill="#9C9C9C"/>
<rect x="1565.04" y="175.418" width="126.75" height="115.715" rx="17" fill="#9C9C9C"/>
<rect x="1576.07" y="162" width="115.715" height="115.715" rx="17" fill="#EBEBEB"/>
<path d="M1605.91 258.4V256.87L1644.77 194.266H1606.9V187.305H1656.67V188.984L1618.01 251.488H1656.32V258.4H1605.91Z" fill="#6E6E6E"/>
<rect x="1407.43" y="162" width="115.715" height="115.715" rx="17" fill="#9C9C9C"/>
<rect x="1407.43" y="175.418" width="126.75" height="115.715" rx="17" fill="#9C9C9C"/>
<rect x="1418.46" y="162" width="115.715" height="115.715" rx="17" fill="#EBEBEB"/>
<path d="M1475.57 258.271C1470.6 258.271 1466.13 257.448 1462.14 255.803C1458.2 254.124 1454.92 251.754 1452.32 248.693C1449.75 245.632 1448.07 241.995 1447.28 237.782L1454.69 236.548C1455.87 241.156 1458.38 244.776 1462.19 247.409C1466.01 250.01 1470.57 251.31 1475.87 251.31C1479.36 251.31 1482.49 250.767 1485.25 249.68C1488.02 248.561 1490.19 246.982 1491.77 244.941C1493.35 242.9 1494.14 240.481 1494.14 237.683C1494.14 235.84 1493.81 234.277 1493.15 232.993C1492.49 231.676 1491.62 230.59 1490.53 229.734C1489.45 228.879 1488.26 228.171 1486.98 227.611C1485.7 227.019 1484.44 226.542 1483.23 226.18L1465.21 220.798C1463.03 220.173 1461.03 219.383 1459.18 218.428C1457.34 217.441 1455.73 216.272 1454.34 214.923C1452.99 213.54 1451.94 211.928 1451.18 210.084C1450.43 208.241 1450.05 206.135 1450.05 203.765C1450.05 199.749 1451.1 196.277 1453.21 193.347C1455.32 190.418 1458.2 188.163 1461.85 186.583C1465.5 185.004 1469.67 184.23 1474.34 184.263C1479.08 184.263 1483.31 185.102 1487.03 186.781C1490.78 188.46 1493.87 190.862 1496.31 193.989C1498.75 197.083 1500.36 200.753 1501.15 204.999L1493.55 206.382C1493.05 203.288 1491.92 200.605 1490.14 198.334C1488.36 196.063 1486.09 194.318 1483.33 193.101C1480.59 191.85 1477.58 191.208 1474.29 191.175C1471.1 191.175 1468.25 191.718 1465.75 192.804C1463.28 193.858 1461.32 195.306 1459.87 197.149C1458.43 198.992 1457.7 201.099 1457.7 203.469C1457.7 205.871 1458.36 207.797 1459.68 209.245C1461.03 210.693 1462.67 211.829 1464.61 212.652C1466.59 213.475 1468.5 214.149 1470.34 214.676L1484.26 218.774C1485.71 219.169 1487.41 219.745 1489.35 220.502C1491.32 221.226 1493.23 222.279 1495.08 223.662C1496.95 225.011 1498.5 226.788 1499.72 228.994C1500.93 231.199 1501.54 233.997 1501.54 237.387C1501.54 240.678 1500.89 243.624 1499.57 246.224C1498.28 248.825 1496.46 251.014 1494.09 252.791C1491.75 254.568 1489 255.918 1485.84 256.839C1482.72 257.794 1479.29 258.271 1475.57 258.271Z" fill="#6E6E6E"/>
<rect x="1249.82" y="162" width="115.715" height="115.715" rx="17" fill="#9C9C9C"/>
<rect x="1249.82" y="175.418" width="126.75" height="115.715" rx="17" fill="#9C9C9C"/>
<rect x="1260.86" y="162" width="115.715" height="115.715" rx="17" fill="#EBEBEB"/>
<path d="M1295.29 259.038V187.943H1302.55V221.515L1334.99 187.943H1344.27L1311.14 222.256L1346.99 259.038H1337.51L1302.55 223.49V259.038H1295.29Z" fill="#6E6E6E"/>
<rect x="934.607" y="162" width="115.715" height="115.715" rx="17" fill="#9C9C9C"/>
<rect x="934.607" y="175.418" width="126.75" height="115.715" rx="17" fill="#9C9C9C"/>
<rect x="945.642" y="162" width="115.715" height="115.715" rx="17" fill="#EBEBEB"/>
<path d="M988.524 258.031V186.217H997.22V250.316H1030.6V258.031H988.524Z" fill="#6E6E6E"/>
<rect x="1092.21" y="346.001" width="115.715" height="115.715" rx="17" fill="#9C9C9C"/>
<rect x="1092.21" y="359.419" width="126.75" height="115.715" rx="17" fill="#9C9C9C"/>
<rect x="1103.25" y="346.001" width="115.715" height="115.715" rx="17" fill="#EBEBEB"/>
<path d="M1146.13 442.032V370.218H1154.83V434.317H1188.21V442.032H1146.13Z" fill="#6E6E6E"/>
<path d="M1010.35 607V537.88H1037.04C1037.71 537.88 1038.47 537.912 1039.3 537.976C1040.16 538.008 1041.03 538.104 1041.89 538.264C1045.51 538.808 1048.56 540.072 1051.06 542.056C1053.59 544.008 1055.49 546.472 1056.77 549.448C1058.08 552.424 1058.74 555.72 1058.74 559.336C1058.74 562.92 1058.08 566.2 1056.77 569.176C1055.46 572.152 1053.54 574.632 1051.01 576.616C1048.51 578.568 1045.47 579.816 1041.89 580.36C1041.03 580.488 1040.16 580.584 1039.3 580.648C1038.47 580.712 1037.71 580.744 1037.04 580.744H1017.41V607H1010.35ZM1017.41 574.024H1036.85C1037.43 574.024 1038.1 573.992 1038.87 573.928C1039.63 573.864 1040.39 573.752 1041.12 573.592C1043.49 573.08 1045.43 572.104 1046.93 570.664C1048.47 569.224 1049.6 567.512 1050.34 565.528C1051.11 563.544 1051.49 561.48 1051.49 559.336C1051.49 557.192 1051.11 555.128 1050.34 553.144C1049.6 551.128 1048.47 549.4 1046.93 547.96C1045.43 546.52 1043.49 545.544 1041.12 545.032C1040.39 544.872 1039.63 544.776 1038.87 544.744C1038.1 544.68 1037.43 544.648 1036.85 544.648H1017.41V574.024ZM1135.74 608.44C1130.59 608.44 1126.19 607.272 1122.54 604.936C1118.89 602.6 1116.09 599.368 1114.14 595.24C1112.19 591.112 1111.21 586.376 1111.21 581.032C1111.21 575.592 1112.2 570.824 1114.19 566.728C1116.17 562.632 1118.99 559.448 1122.63 557.176C1126.31 554.872 1130.68 553.72 1135.74 553.72C1140.92 553.72 1145.34 554.888 1148.99 557.224C1152.67 559.528 1155.47 562.744 1157.39 566.872C1159.34 570.968 1160.31 575.688 1160.31 581.032C1160.31 586.472 1159.34 591.256 1157.39 595.384C1155.43 599.48 1152.62 602.68 1148.94 604.984C1145.26 607.288 1140.86 608.44 1135.74 608.44ZM1135.74 601.672C1141.5 601.672 1145.79 599.768 1148.6 595.96C1151.42 592.12 1152.83 587.144 1152.83 581.032C1152.83 574.76 1151.4 569.768 1148.55 566.056C1145.74 562.344 1141.47 560.488 1135.74 560.488C1131.87 560.488 1128.67 561.368 1126.14 563.128C1123.64 564.856 1121.77 567.272 1120.52 570.376C1119.31 573.448 1118.7 577 1118.7 581.032C1118.7 587.272 1120.14 592.28 1123.02 596.056C1125.9 599.8 1130.14 601.672 1135.74 601.672ZM1216.98 607V555.16H1223.32V567.64L1222.07 566.008C1222.65 564.472 1223.4 563.064 1224.33 561.784C1225.25 560.472 1226.26 559.4 1227.35 558.568C1228.69 557.384 1230.26 556.488 1232.05 555.88C1233.85 555.24 1235.65 554.872 1237.48 554.776C1239.3 554.648 1240.97 554.776 1242.47 555.16V561.784C1240.58 561.304 1238.52 561.192 1236.28 561.448C1234.04 561.704 1231.97 562.6 1230.09 564.136C1228.36 565.48 1227.06 567.096 1226.2 568.984C1225.33 570.84 1224.76 572.824 1224.47 574.936C1224.18 577.016 1224.04 579.08 1224.04 581.128V607H1216.98ZM1325.88 607C1322.97 607.608 1320.09 607.848 1317.24 607.72C1314.42 607.592 1311.9 606.984 1309.66 605.896C1307.45 604.808 1305.77 603.112 1304.62 600.808C1303.69 598.888 1303.18 596.952 1303.08 595C1303.02 593.016 1302.98 590.76 1302.98 588.232V540.76H1309.99V587.944C1309.99 590.12 1310.01 591.944 1310.04 593.416C1310.1 594.856 1310.44 596.136 1311.05 597.256C1312.2 599.4 1314.02 600.68 1316.52 601.096C1319.05 601.512 1322.17 601.416 1325.88 600.808V607ZM1291.9 561.208V555.16H1325.88V561.208H1291.9ZM1387.31 607V551.32C1387.31 549.976 1387.37 548.648 1387.5 547.336C1387.66 546.024 1387.97 544.776 1388.41 543.592C1388.86 542.376 1389.57 541.256 1390.53 540.232C1391.58 539.08 1392.73 538.248 1393.98 537.736C1395.23 537.192 1396.53 536.84 1397.87 536.68C1399.25 536.52 1400.59 536.44 1401.9 536.44H1408.53V542.392H1402.38C1399.69 542.392 1397.68 543.048 1396.33 544.36C1395.02 545.672 1394.37 547.736 1394.37 550.552V607H1387.31ZM1378.33 561.208V555.16H1408.53V561.208H1378.33ZM1482.06 608.44C1476.91 608.44 1472.51 607.272 1468.86 604.936C1465.21 602.6 1462.41 599.368 1460.46 595.24C1458.51 591.112 1457.53 586.376 1457.53 581.032C1457.53 575.592 1458.52 570.824 1460.51 566.728C1462.49 562.632 1465.31 559.448 1468.95 557.176C1472.63 554.872 1477 553.72 1482.06 553.72C1487.24 553.72 1491.66 554.888 1495.31 557.224C1498.99 559.528 1501.79 562.744 1503.71 566.872C1505.66 570.968 1506.63 575.688 1506.63 581.032C1506.63 586.472 1505.66 591.256 1503.71 595.384C1501.75 599.48 1498.94 602.68 1495.26 604.984C1491.58 607.288 1487.18 608.44 1482.06 608.44ZM1482.06 601.672C1487.82 601.672 1492.11 599.768 1494.92 595.96C1497.74 592.12 1499.15 587.144 1499.15 581.032C1499.15 574.76 1497.72 569.768 1494.87 566.056C1492.06 562.344 1487.79 560.488 1482.06 560.488C1478.19 560.488 1474.99 561.368 1472.46 563.128C1469.96 564.856 1468.09 567.272 1466.84 570.376C1465.63 573.448 1465.02 577 1465.02 581.032C1465.02 587.272 1466.46 592.28 1469.34 596.056C1472.22 599.8 1476.46 601.672 1482.06 601.672ZM1564.26 607V536.44H1571.32V607H1564.26ZM1632.75 545.32V537.4H1639.8V545.32H1632.75ZM1632.75 607V555.16H1639.8V607H1632.75ZM1721.92 608.44C1716.77 608.44 1712.37 607.272 1708.72 604.936C1705.07 602.6 1702.27 599.368 1700.32 595.24C1698.37 591.112 1697.39 586.376 1697.39 581.032C1697.39 575.592 1698.39 570.824 1700.37 566.728C1702.35 562.632 1705.17 559.448 1708.82 557.176C1712.5 554.872 1716.87 553.72 1721.92 553.72C1727.11 553.72 1731.52 554.888 1735.17 557.224C1738.85 559.528 1741.65 562.744 1743.57 566.872C1745.52 570.968 1746.5 575.688 1746.5 581.032C1746.5 586.472 1745.52 591.256 1743.57 595.384C1741.62 599.48 1738.8 602.68 1735.12 604.984C1731.44 607.288 1727.04 608.44 1721.92 608.44ZM1721.92 601.672C1727.68 601.672 1731.97 599.768 1734.79 595.96C1737.6 592.12 1739.01 587.144 1739.01 581.032C1739.01 574.76 1737.59 569.768 1734.74 566.056C1731.92 562.344 1727.65 560.488 1721.92 560.488C1718.05 560.488 1714.85 561.368 1712.32 563.128C1709.83 564.856 1707.95 567.272 1706.71 570.376C1705.49 573.448 1704.88 577 1704.88 581.032C1704.88 587.272 1706.32 592.28 1709.2 596.056C1712.08 599.8 1716.32 601.672 1721.92 601.672Z" fill="#6E6E6E"/>
</svg>
