<svg width="1923" height="627" viewBox="0 0 1923 627" fill="none" xmlns="http://www.w3.org/2000/svg">
<path d="M0 0H1923V627H0V0Z" fill="#F5F5F5"/>
<rect x="57.7822" y="230.285" width="150" height="150" rx="17" fill="#9C9C9C"/>
<rect x="57.7822" y="247.679" width="164.304" height="150" rx="17" fill="#9C9C9C"/>
<rect x="72.0869" y="230.285" width="150" height="150" rx="17" fill="#EBEBEB"/>
<path d="M105.215 354.051L136.959 261.891H149.439L181.183 354.051H171.391L141.247 267.139H144.959L115.007 354.051H105.215ZM119.359 331.715V322.883H166.975V331.715H119.359Z" fill="#6E6E6E"/>
<rect x="466.391" y="230.285" width="150" height="150" rx="17" fill="#9C9C9C"/>
<rect x="466.391" y="247.679" width="164.304" height="150" rx="17" fill="#9C9C9C"/>
<rect x="480.695" y="230.285" width="150" height="150" rx="17" fill="#EBEBEB"/>
<path d="M523.228 354.059V261.899H580.828V270.923H532.636V302.795H573.148V311.819H532.636V345.035H580.828V354.059H523.228Z" fill="#6E6E6E"/>
<rect x="1283.61" y="230.285" width="150" height="150" rx="17" fill="#9C9C9C"/>
<rect x="1283.61" y="247.679" width="164.304" height="150" rx="17" fill="#9C9C9C"/>
<rect x="1297.91" y="230.285" width="150" height="150" rx="17" fill="#EBEBEB"/>
<path d="M1340.45 354.059V261.899H1398.05V270.923H1349.85V302.795H1390.37V311.819H1349.85V345.035H1398.05V354.059H1340.45Z" fill="#6E6E6E"/>
<rect x="1487.91" y="230.285" width="150" height="150" rx="17" fill="#9C9C9C"/>
<rect x="1487.91" y="247.679" width="164.304" height="150" rx="17" fill="#9C9C9C"/>
<rect x="1502.22" y="230.285" width="150" height="150" rx="17" fill="#EBEBEB"/>
<path d="M1564.01 355.563C1557.86 355.563 1552.59 353.856 1548.2 350.443C1543.8 347.029 1540.84 342.464 1539.3 336.747L1548.71 334.507C1549.48 337.877 1551.25 340.736 1554.02 343.083C1556.84 345.387 1560.14 346.539 1563.94 346.539C1566.33 346.539 1568.74 345.963 1571.17 344.811C1573.65 343.659 1575.59 341.76 1577 339.115C1577.94 337.28 1578.47 335.296 1578.6 333.163C1578.77 330.987 1578.85 328.384 1578.85 325.355V261.547H1588.33V325.355C1588.33 327.915 1588.3 330.24 1588.26 332.331C1588.22 334.379 1587.98 336.363 1587.56 338.283C1587.17 340.16 1586.43 342.059 1585.32 343.979C1583.1 347.861 1580.11 350.763 1576.36 352.683C1572.65 354.603 1568.53 355.563 1564.01 355.563Z" fill="#6E6E6E"/>
<rect x="1692" y="230" width="150" height="150" rx="17" fill="#9C9C9C"/>
<rect x="1692" y="247.394" width="164.304" height="150" rx="17" fill="#9C9C9C"/>
<rect x="1706.3" y="230" width="150" height="150" rx="17" fill="#EBEBEB"/>
<path d="M1778.86 357.907C1772.38 357.907 1766.53 356.776 1761.33 354.515C1756.12 352.253 1751.69 349.032 1748.02 344.851C1744.39 340.669 1741.62 335.635 1739.7 329.747C1737.78 323.816 1736.82 317.203 1736.82 309.907C1736.82 300.264 1738.48 291.859 1741.81 284.691C1745.18 277.48 1750 271.891 1756.27 267.923C1762.54 263.955 1770.08 261.971 1778.86 261.971C1788.68 261.971 1796.66 264.275 1802.8 268.883C1808.99 273.448 1813.3 279.592 1815.73 287.315L1806.26 289.619C1804.25 283.987 1800.94 279.485 1796.34 276.115C1791.77 272.744 1786.08 271.059 1779.25 271.059C1772.04 271.016 1766.04 272.637 1761.26 275.923C1756.49 279.165 1752.88 283.731 1750.45 289.619C1748.06 295.464 1746.84 302.227 1746.8 309.907C1746.76 317.587 1747.93 324.349 1750.32 330.195C1752.75 335.997 1756.38 340.563 1761.2 343.891C1766.02 347.176 1772.04 348.84 1779.25 348.883C1785.86 348.883 1791.32 347.603 1795.63 345.043C1799.94 342.483 1803.21 338.813 1805.42 334.035C1807.69 329.256 1808.97 323.603 1809.26 317.075H1788.02V309.011H1819.12C1819.25 309.992 1819.31 311.037 1819.31 312.147C1819.36 313.213 1819.38 313.981 1819.38 314.451C1819.38 322.771 1817.88 330.216 1814.9 336.787C1811.91 343.315 1807.41 348.477 1801.39 352.275C1795.42 356.029 1787.91 357.907 1778.86 357.907Z" fill="#6E6E6E"/>
<rect x="1079.3" y="230.285" width="150" height="150" rx="17" fill="#9C9C9C"/>
<rect x="1079.3" y="247.679" width="164.304" height="150" rx="17" fill="#9C9C9C"/>
<rect x="1093.61" y="230.285" width="150" height="150" rx="17" fill="#EBEBEB"/>
<path d="M1132.29 355.248V353.264L1182.66 272.112H1133.57V263.088H1198.08V265.264L1147.97 346.288H1197.64V355.248H1132.29Z" fill="#6E6E6E"/>
<rect x="875" y="230.285" width="150" height="150" rx="17" fill="#9C9C9C"/>
<rect x="875" y="247.679" width="164.304" height="150" rx="17" fill="#9C9C9C"/>
<rect x="889.305" y="230.285" width="150" height="150" rx="17" fill="#EBEBEB"/>
<path d="M963.336 355.08C956.893 355.08 951.091 354.014 945.928 351.881C940.808 349.705 936.563 346.632 933.192 342.664C929.864 338.696 927.688 333.982 926.664 328.521L936.264 326.921C937.8 332.894 941.043 337.587 945.992 341.001C950.941 344.371 956.851 346.057 963.72 346.057C968.243 346.057 972.296 345.353 975.88 343.945C979.464 342.494 982.28 340.446 984.328 337.8C986.376 335.155 987.4 332.019 987.4 328.393C987.4 326.003 986.973 323.977 986.12 322.312C985.267 320.606 984.136 319.198 982.728 318.088C981.32 316.979 979.784 316.062 978.12 315.336C976.456 314.568 974.835 313.95 973.256 313.48L949.896 306.504C947.08 305.694 944.477 304.67 942.088 303.432C939.699 302.152 937.608 300.638 935.816 298.888C934.067 297.096 932.701 295.006 931.72 292.616C930.739 290.227 930.248 287.496 930.248 284.425C930.248 279.219 931.613 274.718 934.344 270.92C937.075 267.123 940.808 264.2 945.544 262.152C950.28 260.104 955.677 259.102 961.736 259.144C967.88 259.144 973.363 260.232 978.184 262.408C983.048 264.584 987.059 267.699 990.216 271.752C993.373 275.763 995.464 280.52 996.488 286.024L986.632 287.816C985.992 283.806 984.52 280.329 982.216 277.385C979.912 274.441 976.968 272.179 973.384 270.6C969.843 268.979 965.939 268.147 961.672 268.104C957.533 268.104 953.843 268.808 950.6 270.217C947.4 271.582 944.861 273.459 942.984 275.848C941.107 278.238 940.168 280.968 940.168 284.04C940.168 287.155 941.021 289.651 942.728 291.528C944.477 293.406 946.611 294.878 949.128 295.944C951.688 297.011 954.163 297.886 956.552 298.568L974.6 303.88C976.477 304.392 978.675 305.139 981.192 306.12C983.752 307.059 986.227 308.424 988.616 310.216C991.048 311.966 993.053 314.27 994.632 317.128C996.211 319.987 997 323.614 997 328.008C997 332.275 996.147 336.094 994.44 339.465C992.776 342.835 990.408 345.673 987.336 347.977C984.307 350.281 980.744 352.03 976.648 353.225C972.595 354.462 968.157 355.08 963.336 355.08Z" fill="#6E6E6E"/>
<rect x="670.695" y="230.285" width="150" height="150" rx="17" fill="#9C9C9C"/>
<rect x="670.695" y="247.679" width="164.304" height="150" rx="17" fill="#9C9C9C"/>
<rect x="685" y="230.285" width="150" height="150" rx="17" fill="#EBEBEB"/>
<path d="M729.641 356.074V263.914H739.049V307.434L781.097 263.914H793.129L750.185 308.394L796.649 356.074H784.361L739.049 309.994V356.074H729.641Z" fill="#6E6E6E"/>
<rect x="262.086" y="230.285" width="150" height="150" rx="17" fill="#9C9C9C"/>
<rect x="262.086" y="247.679" width="164.304" height="150" rx="17" fill="#9C9C9C"/>
<rect x="276.391" y="230.285" width="150" height="150" rx="17" fill="#EBEBEB"/>
<path d="M331.978 354.769V261.678H343.251V344.769H386.523V354.769H331.978Z" fill="#6E6E6E"/>
</svg>
