<svg width="2221" height="740" viewBox="0 0 2221 740" fill="none" xmlns="http://www.w3.org/2000/svg">
<path d="M0.784668 0H2220.78V740H0.784668V0Z" fill="#DDF8FA"/>
<rect x="333.567" y="78.2854" width="150" height="150" rx="17" fill="#9C9C9C"/>
<rect x="333.567" y="95.6792" width="164.304" height="150" rx="17" fill="#9C9C9C"/>
<rect x="347.871" y="78.2854" width="150" height="150" rx="17" fill="#EBEBEB"/>
<path d="M381 202.051L412.744 109.891H425.224L456.968 202.051H447.176L417.032 115.139H420.744L390.792 202.051H381ZM395.144 179.715V170.883H442.76V179.715H395.144Z" fill="#6E6E6E"/>
<rect x="1150.78" y="316.804" width="150" height="150" rx="17" fill="#9C9C9C"/>
<rect x="1150.78" y="334.198" width="164.304" height="150" rx="17" fill="#9C9C9C"/>
<rect x="1165.09" y="316.804" width="150" height="150" rx="17" fill="#EBEBEB"/>
<path d="M1198.22 440.57L1229.96 348.41H1242.44L1274.19 440.57H1264.39L1234.25 353.658H1237.96L1208.01 440.57H1198.22ZM1212.36 418.234V409.402H1259.98V418.234H1212.36Z" fill="#6E6E6E"/>
<rect x="742.176" y="78.2854" width="150" height="150" rx="17" fill="#9C9C9C"/>
<rect x="742.176" y="95.6792" width="164.304" height="150" rx="17" fill="#9C9C9C"/>
<rect x="756.48" y="78.2854" width="150" height="150" rx="17" fill="#EBEBEB"/>
<path d="M799.012 202.059V109.899H856.612V118.923H808.42V150.795H848.932V159.819H808.42V193.035H856.612V202.059H799.012Z" fill="#6E6E6E"/>
<rect x="1559.39" y="78.2854" width="150" height="150" rx="17" fill="#9C9C9C"/>
<rect x="1559.39" y="95.6792" width="164.304" height="150" rx="17" fill="#9C9C9C"/>
<rect x="1573.7" y="78.2854" width="150" height="150" rx="17" fill="#EBEBEB"/>
<path d="M1616.23 202.059V109.899H1673.83V118.923H1625.64V150.795H1666.15V159.819H1625.64V193.035H1673.83V202.059H1616.23Z" fill="#6E6E6E"/>
<rect x="1559.39" y="316.804" width="150" height="150" rx="17" fill="#9C9C9C"/>
<rect x="1559.39" y="334.198" width="164.304" height="150" rx="17" fill="#9C9C9C"/>
<rect x="1573.7" y="316.804" width="150" height="150" rx="17" fill="#EBEBEB"/>
<path d="M1616.23 440.578V348.418H1673.83V357.442H1625.64V389.314H1666.15V398.338H1625.64V431.554H1673.83V440.578H1616.23Z" fill="#6E6E6E"/>
<rect x="1763.7" y="316.804" width="150" height="150" rx="17" fill="#9C9C9C"/>
<rect x="1763.7" y="334.198" width="164.304" height="150" rx="17" fill="#9C9C9C"/>
<rect x="1778" y="316.804" width="150" height="150" rx="17" fill="#EBEBEB"/>
<path d="M1845.41 443.102L1813.66 350.942H1823.46L1851.55 432.414L1879.84 350.942H1889.63L1857.89 443.102H1845.41Z" fill="#6E6E6E"/>
<rect x="1763.7" y="78.2854" width="150" height="150" rx="17" fill="#9C9C9C"/>
<rect x="1763.7" y="95.6792" width="164.304" height="150" rx="17" fill="#9C9C9C"/>
<rect x="1778" y="78.2854" width="150" height="150" rx="17" fill="#EBEBEB"/>
<path d="M1839.79 203.563C1833.65 203.563 1828.38 201.856 1823.98 198.443C1819.59 195.029 1816.62 190.464 1815.09 184.747L1824.49 182.507C1825.26 185.877 1827.03 188.736 1829.81 191.083C1832.62 193.387 1835.93 194.539 1839.73 194.539C1842.12 194.539 1844.53 193.963 1846.96 192.811C1849.43 191.659 1851.37 189.76 1852.78 187.115C1853.72 185.28 1854.25 183.296 1854.38 181.163C1854.55 178.987 1854.64 176.384 1854.64 173.355V109.547H1864.11V173.355C1864.11 175.915 1864.09 178.24 1864.05 180.331C1864 182.379 1863.77 184.363 1863.34 186.283C1862.96 188.16 1862.21 190.059 1861.1 191.979C1858.88 195.861 1855.9 198.763 1852.14 200.683C1848.43 202.603 1844.31 203.563 1839.79 203.563Z" fill="#6E6E6E"/>
<rect x="946.48" y="316.804" width="150" height="150" rx="17" fill="#9C9C9C"/>
<rect x="946.48" y="334.198" width="164.304" height="150" rx="17" fill="#9C9C9C"/>
<rect x="960.785" y="316.804" width="150" height="150" rx="17" fill="#EBEBEB"/>
<path d="M1022.57 442.081C1016.43 442.081 1011.16 440.375 1006.76 436.961C1002.37 433.548 999.404 428.983 997.868 423.265L1007.28 421.025C1008.04 424.396 1009.82 427.255 1012.59 429.601C1015.4 431.905 1018.71 433.057 1022.51 433.057C1024.9 433.057 1027.31 432.481 1029.74 431.329C1032.22 430.177 1034.16 428.279 1035.56 425.633C1036.5 423.799 1037.04 421.815 1037.16 419.681C1037.34 417.505 1037.42 414.903 1037.42 411.873V348.065H1046.89V411.873C1046.89 414.433 1046.87 416.759 1046.83 418.849C1046.79 420.897 1046.55 422.881 1046.12 424.801C1045.74 426.679 1044.99 428.577 1043.88 430.497C1041.67 434.38 1038.68 437.281 1034.92 439.201C1031.21 441.121 1027.1 442.081 1022.57 442.081Z" fill="#6E6E6E"/>
<rect x="1355.09" y="316.804" width="150" height="150" rx="17" fill="#9C9C9C"/>
<rect x="1355.09" y="334.198" width="164.304" height="150" rx="17" fill="#9C9C9C"/>
<rect x="1369.39" y="316.804" width="150" height="150" rx="17" fill="#EBEBEB"/>
<path d="M1431.18 442.081C1425.04 442.081 1419.77 440.375 1415.37 436.961C1410.98 433.548 1408.01 428.983 1406.48 423.265L1415.89 421.025C1416.65 424.396 1418.42 427.255 1421.2 429.601C1424.01 431.905 1427.32 433.057 1431.12 433.057C1433.51 433.057 1435.92 432.481 1438.35 431.329C1440.82 430.177 1442.77 428.279 1444.17 425.633C1445.11 423.799 1445.65 421.815 1445.77 419.681C1445.94 417.505 1446.03 414.903 1446.03 411.873V348.065H1455.5V411.873C1455.5 414.433 1455.48 416.759 1455.44 418.849C1455.39 420.897 1455.16 422.881 1454.73 424.801C1454.35 426.679 1453.6 428.577 1452.49 430.497C1450.27 434.38 1447.29 437.281 1443.53 439.201C1439.82 441.121 1435.7 442.081 1431.18 442.081Z" fill="#6E6E6E"/>
<rect x="333.567" y="316.804" width="150" height="150" rx="17" fill="#9C9C9C"/>
<rect x="333.567" y="334.198" width="164.304" height="150" rx="17" fill="#9C9C9C"/>
<rect x="347.871" y="316.804" width="150" height="150" rx="17" fill="#EBEBEB"/>
<path d="M420.432 444.711C413.946 444.711 408.101 443.58 402.896 441.319C397.69 439.058 393.253 435.836 389.584 431.655C385.957 427.474 383.184 422.439 381.264 416.551C379.344 410.62 378.384 404.007 378.384 396.711C378.384 387.068 380.048 378.663 383.376 371.495C386.746 364.284 391.568 358.695 397.84 354.727C404.112 350.759 411.642 348.775 420.432 348.775C430.245 348.775 438.224 351.079 444.368 355.687C450.554 360.252 454.864 366.396 457.296 374.119L447.824 376.423C445.818 370.791 442.512 366.29 437.904 362.919C433.338 359.548 427.642 357.863 420.816 357.863C413.605 357.82 407.61 359.442 402.832 362.727C398.053 365.97 394.448 370.535 392.016 376.423C389.626 382.268 388.41 389.031 388.368 396.711C388.325 404.391 389.498 411.154 391.888 416.999C394.32 422.802 397.946 427.367 402.768 430.695C407.589 433.98 413.605 435.644 420.816 435.687C427.429 435.687 432.89 434.407 437.2 431.847C441.509 429.287 444.773 425.618 446.992 420.839C449.253 416.06 450.533 410.407 450.832 403.879H429.584V395.815H460.688C460.816 396.796 460.88 397.842 460.88 398.951C460.922 400.018 460.944 400.786 460.944 401.255C460.944 409.575 459.45 417.02 456.464 423.591C453.477 430.119 448.976 435.282 442.96 439.079C436.986 442.834 429.477 444.711 420.432 444.711Z" fill="#6E6E6E"/>
<rect x="537.871" y="316.804" width="150" height="150" rx="17" fill="#9C9C9C"/>
<rect x="537.871" y="334.198" width="164.304" height="150" rx="17" fill="#9C9C9C"/>
<rect x="552.176" y="316.804" width="150" height="150" rx="17" fill="#EBEBEB"/>
<path d="M624.776 443.81C617.736 443.81 611.506 442.359 606.088 439.458C600.712 436.556 596.488 432.46 593.416 427.17C590.344 421.879 588.808 415.692 588.808 408.61V349.794L598.28 349.73V407.394C598.28 412.172 599.09 416.311 600.712 419.81C602.333 423.266 604.445 426.124 607.048 428.386C609.693 430.604 612.573 432.247 615.688 433.314C618.802 434.38 621.832 434.914 624.776 434.914C627.762 434.914 630.813 434.38 633.928 433.314C637.042 432.247 639.901 430.604 642.504 428.386C645.106 426.124 647.218 423.266 648.84 419.81C650.461 416.311 651.272 412.172 651.272 407.394V349.73H660.744V408.61C660.744 415.692 659.208 421.879 656.136 427.17C653.064 432.418 648.818 436.514 643.4 439.458C638.024 442.359 631.816 443.81 624.776 443.81Z" fill="#6E6E6E"/>
<rect x="1355.09" y="78.2854" width="150" height="150" rx="17" fill="#9C9C9C"/>
<rect x="1355.09" y="95.6792" width="164.304" height="150" rx="17" fill="#9C9C9C"/>
<rect x="1369.39" y="78.2854" width="150" height="150" rx="17" fill="#EBEBEB"/>
<path d="M1408.08 203.248V201.264L1458.44 120.112H1409.36V111.088H1473.87V113.264L1423.76 194.288H1473.42V203.248H1408.08Z" fill="#6E6E6E"/>
<rect x="1150.78" y="78.2854" width="150" height="150" rx="17" fill="#9C9C9C"/>
<rect x="1150.78" y="95.6792" width="164.304" height="150" rx="17" fill="#9C9C9C"/>
<rect x="1165.09" y="78.2854" width="150" height="150" rx="17" fill="#EBEBEB"/>
<path d="M1239.12 203.08C1232.68 203.08 1226.88 202.014 1221.71 199.881C1216.59 197.705 1212.35 194.632 1208.98 190.664C1205.65 186.696 1203.47 181.982 1202.45 176.521L1212.05 174.921C1213.58 180.894 1216.83 185.587 1221.78 189.001C1226.73 192.371 1232.64 194.057 1239.5 194.057C1244.03 194.057 1248.08 193.353 1251.66 191.945C1255.25 190.494 1258.06 188.446 1260.11 185.8C1262.16 183.155 1263.18 180.019 1263.18 176.393C1263.18 174.003 1262.76 171.977 1261.9 170.312C1261.05 168.606 1259.92 167.198 1258.51 166.088C1257.1 164.979 1255.57 164.062 1253.9 163.336C1252.24 162.568 1250.62 161.95 1249.04 161.48L1225.68 154.504C1222.86 153.694 1220.26 152.67 1217.87 151.432C1215.48 150.152 1213.39 148.638 1211.6 146.888C1209.85 145.096 1208.49 143.006 1207.5 140.616C1206.52 138.227 1206.03 135.496 1206.03 132.425C1206.03 127.219 1207.4 122.718 1210.13 118.92C1212.86 115.123 1216.59 112.2 1221.33 110.152C1226.06 108.104 1231.46 107.102 1237.52 107.144C1243.66 107.144 1249.15 108.232 1253.97 110.408C1258.83 112.584 1262.84 115.699 1266 119.752C1269.16 123.763 1271.25 128.52 1272.27 134.024L1262.42 135.816C1261.78 131.806 1260.3 128.329 1258 125.385C1255.7 122.441 1252.75 120.179 1249.17 118.6C1245.63 116.979 1241.72 116.147 1237.46 116.104C1233.32 116.104 1229.63 116.808 1226.38 118.217C1223.18 119.582 1220.65 121.459 1218.77 123.848C1216.89 126.238 1215.95 128.968 1215.95 132.04C1215.95 135.155 1216.81 137.651 1218.51 139.528C1220.26 141.406 1222.4 142.878 1224.91 143.944C1227.47 145.011 1229.95 145.886 1232.34 146.568L1250.38 151.88C1252.26 152.392 1254.46 153.139 1256.98 154.12C1259.54 155.059 1262.01 156.424 1264.4 158.216C1266.83 159.966 1268.84 162.27 1270.42 165.128C1272 167.987 1272.78 171.614 1272.78 176.008C1272.78 180.275 1271.93 184.094 1270.22 187.465C1268.56 190.835 1266.19 193.673 1263.12 195.977C1260.09 198.281 1256.53 200.03 1252.43 201.225C1248.38 202.462 1243.94 203.08 1239.12 203.08Z" fill="#6E6E6E"/>
<rect x="946.48" y="78.2854" width="150" height="150" rx="17" fill="#9C9C9C"/>
<rect x="946.48" y="95.6792" width="164.304" height="150" rx="17" fill="#9C9C9C"/>
<rect x="960.785" y="78.2854" width="150" height="150" rx="17" fill="#EBEBEB"/>
<path d="M1005.43 204.074V111.914H1014.83V155.434L1056.88 111.914H1068.91L1025.97 156.394L1072.43 204.074H1060.15L1014.83 157.994V204.074H1005.43Z" fill="#6E6E6E"/>
<rect x="537.871" y="78.2854" width="150" height="150" rx="17" fill="#9C9C9C"/>
<rect x="537.871" y="95.6792" width="164.304" height="150" rx="17" fill="#9C9C9C"/>
<rect x="552.176" y="78.2854" width="150" height="150" rx="17" fill="#EBEBEB"/>
<path d="M607.763 202.769V109.678H619.035V192.769H662.308V202.769H607.763Z" fill="#6E6E6E"/>
<rect x="742.176" y="316.804" width="150" height="150" rx="17" fill="#9C9C9C"/>
<rect x="742.176" y="334.198" width="164.304" height="150" rx="17" fill="#9C9C9C"/>
<rect x="756.48" y="316.804" width="150" height="150" rx="17" fill="#EBEBEB"/>
<path d="M812.067 441.287V348.197H823.34V431.287H866.612V441.287H812.067Z" fill="#6E6E6E"/>
<path d="M654.86 673.383V581.223H690.444C691.34 581.223 692.343 581.265 693.452 581.351C694.604 581.393 695.756 581.521 696.908 581.735C701.73 582.46 705.804 584.145 709.132 586.791C712.503 589.393 715.042 592.679 716.748 596.647C718.498 600.615 719.372 605.009 719.372 609.831C719.372 614.609 718.498 618.983 716.748 622.951C714.999 626.919 712.439 630.225 709.068 632.871C705.74 635.473 701.687 637.137 696.908 637.863C695.756 638.033 694.604 638.161 693.452 638.247C692.343 638.332 691.34 638.375 690.444 638.375H664.268V673.383H654.86ZM664.268 629.415H690.188C690.956 629.415 691.852 629.372 692.876 629.287C693.9 629.201 694.903 629.052 695.884 628.839C699.042 628.156 701.623 626.855 703.628 624.935C705.676 623.015 707.191 620.732 708.172 618.087C709.196 615.441 709.708 612.689 709.708 609.831C709.708 606.972 709.196 604.22 708.172 601.575C707.191 598.887 705.676 596.583 703.628 594.663C701.623 592.743 699.042 591.441 695.884 590.759C694.903 590.545 693.9 590.417 692.876 590.375C691.852 590.289 690.956 590.247 690.188 590.247H664.268V629.415ZM822.039 675.303C815.17 675.303 809.303 673.745 804.439 670.631C799.575 667.516 795.842 663.207 793.239 657.703C790.637 652.199 789.335 645.884 789.335 638.759C789.335 631.505 790.658 625.148 793.303 619.687C795.949 614.225 799.703 609.98 804.567 606.951C809.474 603.879 815.298 602.343 822.039 602.343C828.951 602.343 834.839 603.9 839.703 607.015C844.61 610.087 848.343 614.375 850.903 619.879C853.506 625.34 854.807 631.633 854.807 638.759C854.807 646.012 853.506 652.391 850.903 657.895C848.301 663.356 844.546 667.623 839.639 670.695C834.733 673.767 828.866 675.303 822.039 675.303ZM822.039 666.279C829.719 666.279 835.437 663.74 839.191 658.663C842.946 653.543 844.823 646.908 844.823 638.759C844.823 630.396 842.925 623.74 839.127 618.791C835.373 613.841 829.677 611.367 822.039 611.367C816.877 611.367 812.61 612.54 809.239 614.887C805.911 617.191 803.415 620.412 801.751 624.551C800.13 628.647 799.319 633.383 799.319 638.759C799.319 647.079 801.239 653.756 805.079 658.791C808.919 663.783 814.573 666.279 822.039 666.279ZM930.365 673.383V604.263H938.813V620.903L937.149 618.727C937.917 616.679 938.92 614.801 940.157 613.095C941.395 611.345 942.739 609.916 944.189 608.807C945.981 607.228 948.072 606.033 950.461 605.223C952.851 604.369 955.261 603.879 957.693 603.751C960.125 603.58 962.344 603.751 964.349 604.263V613.095C961.832 612.455 959.08 612.305 956.093 612.647C953.107 612.988 950.355 614.183 947.837 616.231C945.533 618.023 943.805 620.177 942.653 622.695C941.501 625.169 940.733 627.815 940.349 630.631C939.965 633.404 939.773 636.156 939.773 638.887V673.383H930.365ZM1075.56 673.383C1071.68 674.193 1067.84 674.513 1064.04 674.343C1060.29 674.172 1056.92 673.361 1053.93 671.911C1050.99 670.46 1048.75 668.199 1047.21 665.127C1045.97 662.567 1045.29 659.985 1045.16 657.383C1045.08 654.737 1045.03 651.729 1045.03 648.359V585.063H1054.38V647.975C1054.38 650.876 1054.4 653.308 1054.44 655.271C1054.53 657.191 1054.98 658.897 1055.79 660.391C1057.32 663.249 1059.75 664.956 1063.08 665.511C1066.45 666.065 1070.61 665.937 1075.56 665.127V673.383ZM1030.25 612.327V604.263H1075.56V612.327H1030.25ZM1157.47 673.383V599.143C1157.47 597.351 1157.55 595.58 1157.72 593.831C1157.94 592.081 1158.34 590.417 1158.94 588.839C1159.54 587.217 1160.48 585.724 1161.76 584.359C1163.16 582.823 1164.7 581.713 1166.36 581.031C1168.03 580.305 1169.76 579.836 1171.55 579.623C1173.38 579.409 1175.18 579.303 1176.92 579.303H1185.76V587.239H1177.56C1173.98 587.239 1171.29 588.113 1169.5 589.863C1167.75 591.612 1166.88 594.364 1166.88 598.119V673.383H1157.47ZM1145.5 612.327V604.263H1185.76V612.327H1145.5ZM1283.8 675.303C1276.93 675.303 1271.06 673.745 1266.2 670.631C1261.34 667.516 1257.6 663.207 1255 657.703C1252.4 652.199 1251.1 645.884 1251.1 638.759C1251.1 631.505 1252.42 625.148 1255.06 619.687C1257.71 614.225 1261.46 609.98 1266.33 606.951C1271.23 603.879 1277.06 602.343 1283.8 602.343C1290.71 602.343 1296.6 603.9 1301.46 607.015C1306.37 610.087 1310.1 614.375 1312.66 619.879C1315.27 625.34 1316.57 631.633 1316.57 638.759C1316.57 646.012 1315.27 652.391 1312.66 657.895C1310.06 663.356 1306.31 667.623 1301.4 670.695C1296.49 673.767 1290.63 675.303 1283.8 675.303ZM1283.8 666.279C1291.48 666.279 1297.2 663.74 1300.95 658.663C1304.71 653.543 1306.58 646.908 1306.58 638.759C1306.58 630.396 1304.68 623.74 1300.89 618.791C1297.13 613.841 1291.44 611.367 1283.8 611.367C1278.64 611.367 1274.37 612.54 1271 614.887C1267.67 617.191 1265.18 620.412 1263.51 624.551C1261.89 628.647 1261.08 633.383 1261.08 638.759C1261.08 647.079 1263 653.756 1266.84 658.791C1270.68 663.783 1276.33 666.279 1283.8 666.279ZM1393.41 673.383V579.303H1402.81V673.383H1393.41ZM1484.72 591.143V580.583H1494.13V591.143H1484.72ZM1484.72 673.383V604.263H1494.13V673.383H1484.72ZM1603.62 675.303C1596.75 675.303 1590.88 673.745 1586.02 670.631C1581.16 667.516 1577.42 663.207 1574.82 657.703C1572.22 652.199 1570.92 645.884 1570.92 638.759C1570.92 631.505 1572.24 625.148 1574.88 619.687C1577.53 614.225 1581.28 609.98 1586.15 606.951C1591.05 603.879 1596.88 602.343 1603.62 602.343C1610.53 602.343 1616.42 603.9 1621.28 607.015C1626.19 610.087 1629.92 614.375 1632.48 619.879C1635.09 625.34 1636.39 631.633 1636.39 638.759C1636.39 646.012 1635.09 652.391 1632.48 657.895C1629.88 663.356 1626.13 667.623 1621.22 670.695C1616.31 673.767 1610.45 675.303 1603.62 675.303ZM1603.62 666.279C1611.3 666.279 1617.02 663.74 1620.77 658.663C1624.53 653.543 1626.4 646.908 1626.4 638.759C1626.4 630.396 1624.5 623.74 1620.71 618.791C1616.95 613.841 1611.26 611.367 1603.62 611.367C1598.46 611.367 1594.19 612.54 1590.82 614.887C1587.49 617.191 1585 620.412 1583.33 624.551C1581.71 628.647 1580.9 633.383 1580.9 638.759C1580.9 647.079 1582.82 653.756 1586.66 658.791C1590.5 663.783 1596.15 666.279 1603.62 666.279Z" fill="#6E6E6E"/>
</svg>
