<svg width="718" height="719" viewBox="0 0 718 719" fill="none" xmlns="http://www.w3.org/2000/svg">
<g filter="url(#filter0_d_132_12)">
<path fill-rule="evenodd" clip-rule="evenodd" d="M359.002 0.879811C557.273 0.879811 718.002 161.611 718.002 359.882C718.002 558.152 557.273 718.882 359.002 718.882C160.731 718.882 0 558.152 0 359.882C0 161.611 160.731 0.879811 359.002 0.879811Z" fill="#CC499C"/>
<path d="M287.656 479.466C292.879 498.786 292.306 516.803 286.912 533.119C286.312 534.932 285.652 536.725 284.935 538.496C284.219 540.265 283.443 542.014 282.611 543.741C278.45 552.374 272.867 560.454 266.029 567.912C245.171 590.668 216.027 599.273 203.531 592.023C190.037 584.201 196.796 552.116 220.98 526.554C246.997 499.05 284.43 481.367 284.43 481.367L284.373 481.255C285.451 480.675 286.546 480.077 287.656 479.466ZM584.191 154.537C567.934 90.7771 462.213 69.8174 362.154 105.365C302.608 126.519 238.144 159.722 191.793 203.077C136.682 254.626 127.893 299.491 131.516 318.238C144.293 384.389 234.932 427.627 272.192 459.708V459.902C261.206 465.311 180.791 506.007 161.972 547.612C142.115 591.504 165.132 623.001 180.371 627.24C227.587 640.377 276.039 616.748 302.077 577.91C327.204 540.429 325.112 492.03 314.192 467.955C329.256 463.981 346.816 462.2 369.134 464.807C432.109 472.163 444.465 511.485 442.103 527.938C439.742 544.396 426.533 553.445 422.117 556.176C417.699 558.909 416.352 559.855 416.724 561.886C417.258 564.838 419.303 564.729 423.069 564.09C428.252 563.217 456.137 550.705 457.329 520.328C458.848 481.76 421.888 438.617 356.445 439.745C329.493 440.209 312.546 442.773 300.305 447.329C299.399 446.298 298.478 445.272 297.526 444.257C257.068 401.091 182.276 370.557 185.448 312.528C186.601 291.432 193.934 235.88 329.161 168.496C439.936 113.299 528.615 128.488 543.941 162.152C565.832 210.246 496.547 299.634 381.506 312.528C337.677 317.442 314.599 300.454 308.859 294.128C302.814 287.468 301.914 287.168 299.658 288.417C295.981 290.453 298.311 296.333 299.658 299.839C303.092 308.777 317.187 324.629 341.217 332.514C362.355 339.451 413.816 343.263 476.05 319.191C545.749 292.228 600.177 217.229 584.191 154.537Z" fill="white"/>
</g>
<defs>
<filter id="filter0_d_132_12" x="-4" y="0.879761" width="726.002" height="726.002" filterUnits="userSpaceOnUse" color-interpolation-filters="sRGB">
<feFlood flood-opacity="0" result="BackgroundImageFix"/>
<feColorMatrix in="SourceAlpha" type="matrix" values="0 0 0 0 0 0 0 0 0 0 0 0 0 0 0 0 0 0 127 0" result="hardAlpha"/>
<feOffset dy="4"/>
<feGaussianBlur stdDeviation="2"/>
<feComposite in2="hardAlpha" operator="out"/>
<feColorMatrix type="matrix" values="0 0 0 0 0 0 0 0 0 0 0 0 0 0 0 0 0 0 0.25 0"/>
<feBlend mode="normal" in2="BackgroundImageFix" result="effect1_dropShadow_132_12"/>
<feBlend mode="normal" in="SourceGraphic" in2="effect1_dropShadow_132_12" result="shape"/>
</filter>
</defs>
</svg>
