<svg width="215" height="182" viewBox="0 0 215 182" fill="none" xmlns="http://www.w3.org/2000/svg">
<path fill-rule="evenodd" clip-rule="evenodd" d="M0 10.4839C0 4.69379 4.69098 0 10.4776 0H204.522C210.309 0 215 4.69379 215 10.4839V171.516C215 177.306 210.309 182 204.522 182H10.4776C4.69097 182 0 177.306 0 171.516V10.4839ZM10.4776 8.3871C9.32026 8.3871 8.38207 9.32585 8.38207 10.4839V171.516C8.38207 172.674 9.32026 173.613 10.4776 173.613H204.522C205.68 173.613 206.618 172.674 206.618 171.516V10.4839C206.618 9.32585 205.68 8.3871 204.522 8.3871H10.4776Z" fill="#505050"/>
<path fill-rule="evenodd" clip-rule="evenodd" d="M0 14.9438C0 6.69058 6.56736 0 14.6686 0H200.331C208.433 0 215 6.69057 215 14.9438V23.0562C215 31.3094 208.433 38 200.331 38H14.6686C6.56737 38 0 31.3094 0 23.0562V14.9438ZM14.6686 8.53933C11.1967 8.53933 8.38207 11.4067 8.38207 14.9438V23.0562C8.38207 26.5933 11.1967 29.4607 14.6686 29.4607H200.331C203.803 29.4607 206.618 26.5933 206.618 23.0562V14.9438C206.618 11.4067 203.803 8.53933 200.331 8.53933H14.6686Z" fill="#505050"/>
<path d="M85 75.5C85 86.2696 76.0457 95 65 95C53.9543 95 45 86.2696 45 75.5C45 64.7304 53.9543 56 65 56C76.0457 56 85 64.7304 85 75.5Z" fill="#505050"/>
<path d="M118 72.5C118 69.4624 120.425 67 123.417 67H182.583C185.575 67 188 69.4624 188 72.5C188 75.5376 185.575 78 182.583 78H123.417C120.425 78 118 75.5376 118 72.5Z" fill="#505050"/>
<path d="M118 104C118 100.686 120.425 98 123.417 98H182.583C185.575 98 188 100.686 188 104C188 107.314 185.575 110 182.583 110H123.417C120.425 110 118 107.314 118 104Z" fill="#505050"/>
<path d="M118 135.5C118 132.462 120.425 130 123.417 130H182.583C185.575 130 188 132.462 188 135.5C188 138.538 185.575 141 182.583 141H123.417C120.425 141 118 138.538 118 135.5Z" fill="#505050"/>
<path d="M100.815 142.656C101.879 147.119 98.1959 151 93.6153 151H35.4125C30.8319 151 27.1484 147.122 28.1723 142.649C32.3782 124.274 46.6787 107 64.0716 107C81.4666 107 96.4363 124.279 100.815 142.656Z" fill="#505050"/>
</svg>
