<svg width="156" height="156" viewBox="0 0 156 156" fill="none" xmlns="http://www.w3.org/2000/svg">
<path d="M96.72 46.8C96.72 57.1388 88.3388 65.52 78 65.52C67.6613 65.52 59.28 57.1388 59.28 46.8C59.28 36.4612 67.6613 28.08 78 28.08C88.3388 28.08 96.72 36.4612 96.72 46.8Z" fill="#505050"/>
<path d="M115.253 111.316C116.329 115.747 112.604 119.6 107.97 119.6H49.0977C44.4644 119.6 40.7386 115.75 41.7742 111.31C46.0286 93.0687 60.4936 75.92 78.0866 75.92C95.6818 75.92 110.824 93.0731 115.253 111.316Z" fill="#505050"/>
<path fill-rule="evenodd" clip-rule="evenodd" d="M78 6.5C38.5116 6.5 6.5 38.5116 6.5 78C6.5 117.488 38.5116 149.5 78 149.5C117.488 149.5 149.5 117.488 149.5 78C149.5 38.5116 117.488 6.5 78 6.5ZM0 78C0 34.9218 34.9218 0 78 0C121.078 0 156 34.9218 156 78C156 121.078 121.078 156 78 156C34.9218 156 0 121.078 0 78Z" fill="#505050"/>
</svg>
