<svg width="296" height="224" viewBox="0 0 296 224" fill="none" xmlns="http://www.w3.org/2000/svg">
<path d="M146.29 0.276887C147.332 -0.0852852 148.465 -0.0923491 149.512 0.256794L288.959 46.7595C298.014 49.7793 298.094 62.5596 289.077 65.6921L149.505 114.179C148.463 114.541 147.33 114.548 146.283 114.199L6.83647 67.6962C-2.21903 64.6763 -2.29872 51.8961 6.71842 48.7635L146.29 0.276887Z" fill="#505050"/>
<path d="M47.5698 99.1033C44.3286 98.0086 40.97 100.419 40.97 103.84V184.983C40.97 195.605 47.682 205.135 57.8055 208.348C123.787 229.292 168.192 228.928 237.64 208.146C248.006 205.044 254.97 195.394 254.97 184.574V101.985C254.97 98.529 251.547 96.1151 248.291 97.2754L148.885 132.701C148.633 132.819 147.334 132.826 147.055 132.701L47.5698 99.1033Z" fill="#505050"/>
<path d="M275.97 59.8953H286.97V120.895H275.97V59.8953Z" fill="#505050"/>
<path d="M280.97 109.895L292.298 130.17C293.043 131.503 292.079 133.145 290.552 133.145H271.388C269.861 133.145 268.897 131.503 269.642 130.17L280.97 109.895Z" fill="#505050"/>
</svg>
