<svg width="483" height="483" viewBox="0 0 483 483" fill="none" xmlns="http://www.w3.org/2000/svg">
<path d="M392.914 159.477L361.795 118.427C358.812 114.492 353.264 113.65 349.257 116.465C349.073 116.594 348.904 116.731 348.731 116.875C346.977 118.331 336.423 127.037 326.907 133.545C320.08 138.215 293.118 129.98 275.606 120.569C262.912 113.746 259.183 99.2513 257.324 84.9602L256.344 77.4306C255.714 72.4202 251.142 68.8691 246.132 69.4989L195.022 75.9237C190.012 76.5535 187.116 81.966 187.091 86.1362L187.809 91.8511C189.592 106.038 185.726 120.658 175.002 130.116C169.752 134.746 164.055 139.154 157.975 143.311C143.076 153.501 123.88 153.67 107.244 146.665C102.59 144.706 97.2289 146.89 95.2692 151.544L75.2784 199.019C73.3187 203.673 75.5028 209.034 80.1568 210.994L93.6074 215.829C101.824 218.782 109.348 223.718 114.094 231.046C123.849 246.105 127.549 261.239 123.741 277.189C121.411 286.952 114.262 294.601 106.264 300.664L92.951 310.756C88.9268 313.807 88.1376 319.542 91.1882 323.567L122.307 364.616C125.358 368.641 131.093 369.43 135.117 366.379L150.489 354.831C157.477 349.581 166.113 346.609 174.716 348.153C186.905 350.341 199.627 355.182 210.843 364.503C220.504 372.531 224.663 385.026 226.23 397.49L227.163 404.914C227.793 409.924 232.365 413.476 237.375 412.846L288.485 406.421C293.495 405.791 297.046 401.219 296.417 396.208L295.717 390.639C294.032 377.238 298.132 363.561 308.129 354.478C314.264 348.904 320.741 343.663 327.506 338.947C341.756 329.015 360.173 329.136 376.263 335.679C380.917 337.639 386.278 335.455 388.238 330.801L408.229 283.326C410.188 278.672 408.004 273.311 403.35 271.351L393.487 267.197C384.015 263.209 375.487 256.738 371.296 247.354C365.865 235.194 363.544 222.183 364.884 208.525C366.158 195.527 374.749 184.785 385.137 176.869L391.151 172.287C395.175 169.236 395.964 163.501 392.914 159.477Z" stroke="black" stroke-width="15"/>
<circle cx="241.711" cy="241.221" r="77.9024" transform="rotate(52.8352 241.711 241.221)" stroke="black" stroke-width="15"/>
</svg>
