<svg width="300" height="375" viewBox="0 0 300 375" fill="none" xmlns="http://www.w3.org/2000/svg">
<path d="M82.0206 76C79.2478 76 77 78.2478 77 81.0206V87.8072C77 90.58 79.2478 92.8278 82.0206 92.8278H94.7293C94.7293 136.664 112.884 173.196 138.206 181.335C139.635 181.794 140.839 182.984 141.107 184.461C142.222 190.61 136.667 194.995 130.905 197.414C108.342 206.884 94.7293 235.777 94.7293 284.149H82.0206C79.2478 284.149 77 286.397 77 289.17V295.957C77 298.729 79.2478 300.977 82.0206 300.977H215.863C218.636 300.977 220.883 298.729 220.883 295.957V289.17C220.883 286.397 218.636 284.149 215.863 284.149H203.154C203.154 235.401 189.681 206.932 167.326 197.486C161.684 195.102 156.363 190.75 157.366 184.707C157.618 183.187 158.871 181.959 160.36 181.562C185.325 174.901 203.154 145.506 203.154 92.8278H215.863C218.636 92.8278 220.883 90.58 220.883 87.8072V81.0206C220.883 78.2478 218.636 76 215.863 76H82.0206Z" fill="#E6E6E6"/>
<path d="M94.9143 92.8278C94.9143 136.664 113.069 173.196 138.391 181.335C139.821 181.794 141.024 182.984 141.292 184.461C142.407 190.61 136.852 194.995 131.09 197.414C108.527 206.884 94.9143 235.777 94.9143 284.149H99.8278C99.8278 235.777 113.441 206.884 136.003 197.414C141.766 194.995 147.321 190.61 146.205 184.461C145.938 182.984 144.734 181.794 143.305 181.335C117.983 173.196 99.8278 136.664 99.8278 92.8278H94.9143Z" fill="#E0E0E0"/>
<path d="M203.762 91.5685H194.281C194.281 144.246 180.005 174.535 155.684 181.196C154.234 181.594 153.013 182.821 152.767 184.342C151.79 190.384 156.974 194.737 162.47 197.121C184.228 206.557 193.418 236.206 193.442 284.87H203.223C203.199 236.206 189.956 206.557 168.198 197.121C162.701 194.737 157.517 190.384 158.494 184.342C158.74 182.821 159.961 181.594 161.412 181.196C185.655 174.557 203.652 143.93 203.762 91.5685Z" fill="#E8E8E8"/>
<path d="M185.109 276.754C185.65 276.754 186.095 276.345 186.083 275.804C186.074 275.402 185.868 275.011 185.54 274.778C172.561 265.578 170.524 250.439 161.877 241.801C155.087 235.017 143.338 235.402 136.135 241.745C126.056 250.622 124.043 265.922 111.965 275.198C111.869 275.272 111.811 275.421 111.809 275.542C111.799 276.242 112.357 276.754 113.058 276.754H185.109Z" fill="#A57A3B"/>
<rect x="77.0002" y="284.149" width="143.883" height="16.8278" rx="8.41388" fill="#585050"/>
<rect x="77" y="76" width="143.883" height="16.8278" rx="8.41388" fill="#585050"/>
<path d="M138.875 156.932C130.59 156.932 126.301 163.429 133.033 168.257C139.249 172.714 146.725 176.192 148.942 176.192C151.398 176.192 159.488 172.685 166.068 168.145C172.887 163.441 168.609 156.932 160.325 156.932L138.875 156.932Z" fill="#A57A3B"/>
<ellipse cx="149.6" cy="213.797" rx="2.14084" ry="2.84323" fill="#A57A3B"/>
<ellipse cx="149.6" cy="224.51" rx="2.14084" ry="2.84323" fill="#A57A3B"/>
<path d="M177.412 211.986C182.124 218.071 182.717 224.929 179.211 229.185C170.542 235.376 151.583 216.251 159.139 208.744C159.27 208.614 159.422 208.482 159.596 208.347C163.941 204.982 172.701 205.902 177.412 211.986Z" fill="#EDEDED"/>
</svg>
