<svg width="405" height="632" viewBox="0 0 405 632" fill="none" xmlns="http://www.w3.org/2000/svg">
<path d="M14.98 0.732361C7.20115 0.732361 0.89502 7.03843 0.89502 14.8174V33.857C0.89502 41.6359 7.20115 47.942 14.98 47.942H50.6337C50.6337 170.922 101.567 273.412 172.607 296.246C176.616 297.535 179.993 300.872 180.745 305.016V305.016C183.874 322.267 168.289 334.569 152.123 341.354C88.8248 367.923 50.6337 448.982 50.6337 584.688H14.9799C7.20103 584.688 0.894897 590.994 0.894897 598.773V617.812C0.894897 625.591 7.20103 631.897 14.9799 631.897H390.469C398.248 631.897 404.554 625.591 404.554 617.812V598.773C404.554 590.994 398.248 584.688 390.469 584.688H354.815C354.815 447.926 317.016 368.056 254.301 341.558C238.472 334.87 223.544 322.658 226.357 305.706V305.706C227.065 301.441 230.581 297.997 234.759 296.882C304.796 278.195 354.815 195.728 354.815 47.942H390.469C398.248 47.942 404.554 41.6359 404.554 33.857V14.8174C404.554 7.03843 398.248 0.732361 390.469 0.732361H14.98Z" fill="#E6E6E6"/>
<path d="M51.1527 47.942C51.1527 170.922 102.086 273.412 173.126 296.246C177.135 297.535 180.512 300.872 181.264 305.016C184.393 322.267 168.808 334.569 152.642 341.354C89.3438 367.923 51.1527 448.982 51.1527 584.688H64.9373C64.9373 448.982 103.128 367.923 166.427 341.354C182.593 334.569 198.177 322.267 195.048 305.016C194.297 300.872 190.92 297.535 186.91 296.246C115.871 273.412 64.9373 170.922 64.9373 47.942H51.1527Z" fill="#E0E0E0"/>
<path d="M356.522 44.4091H329.924C329.924 192.195 289.872 277.17 221.64 295.857C217.571 296.972 214.145 300.416 213.456 304.681C210.715 321.633 225.258 333.845 240.679 340.533C301.72 367.006 327.5 450.184 327.569 586.709H355.01C354.94 450.184 317.788 367.006 256.747 340.533C241.327 333.845 226.783 321.633 229.524 304.681C230.214 300.416 233.639 296.972 237.709 295.857C305.723 277.23 356.213 191.308 356.522 44.4091Z" fill="#E8E8E8"/>
<path d="M304.19 563.941C305.709 563.941 306.958 562.793 306.923 561.275V561.275C306.898 560.148 306.319 559.049 305.4 558.398C260.079 526.274 262.317 468.338 217.16 451.878C208.143 448.591 198.089 448.945 189.112 452.341C139.641 471.058 140.278 527.864 98.9873 559.576C98.7182 559.782 98.5551 560.2 98.5502 560.54V560.54C98.5217 562.504 100.089 563.941 102.053 563.941H304.19Z" fill="#A57A3B"/>
<rect x="0.895386" y="584.688" width="403.659" height="47.2097" rx="23.6048" fill="#585050"/>
<rect x="0.894897" y="0.732361" width="403.659" height="47.2097" rx="23.6048" fill="#585050"/>
<path d="M147.4 227.783C139.116 227.783 133.111 234.783 138.15 241.359C153.28 261.104 193.662 281.817 202.725 281.817C212.648 281.817 255.333 261.417 270.971 241.349C276.064 234.814 270.026 227.783 261.742 227.783L147.4 227.783Z" fill="#A57A3B"/>
<ellipse cx="204.571" cy="387.317" rx="6.00604" ry="7.97657" fill="#A57A3B"/>
<ellipse cx="204.571" cy="417.372" rx="6.00604" ry="7.97657" fill="#A57A3B"/>
<path d="M282.598 382.237C295.815 399.306 297.481 418.546 287.643 430.488V430.488C263.325 447.855 210.134 394.201 231.334 373.14C231.701 372.776 232.127 372.405 232.616 372.026C244.805 362.588 269.381 365.167 282.598 382.237Z" fill="#EDEDED"/>
</svg>
