<svg width="162" height="162" viewBox="0 0 162 162" fill="none" xmlns="http://www.w3.org/2000/svg">
<circle cx="81" cy="81" r="81" fill="#D9D9D9"/>
<path d="M93.346 76.092C93.346 80.18 92.032 87.2367 89.404 97.262C86.776 107.19 85.462 113.711 85.462 116.826C85.462 119.843 85.9 121.352 86.776 121.352C87.36 121.352 89.5987 120.427 93.492 118.578L95.244 117.702L97.726 122.812C96.85 123.591 95.682 124.564 94.222 125.732C92.762 126.9 90.0367 128.506 86.046 130.55C82.0553 132.497 78.3567 133.47 74.95 133.47C71.5433 133.47 68.8667 132.448 66.92 130.404C64.9733 128.263 64 125.44 64 121.936C64 118.335 65.2167 112.008 67.65 102.956C70.0833 93.8067 71.3 87.8693 71.3 85.144C71.3 81.056 70.0347 77.2113 67.504 73.61L66.19 71.858L66.336 69.96C71.4947 68.5 79.8653 67.77 91.448 67.77C92.7133 69.23 93.346 72.004 93.346 76.092ZM76.702 51.856C74.7553 49.9093 73.782 47.33 73.782 44.118C73.782 40.906 75.096 38.0833 77.724 35.65C80.4493 33.2167 83.564 32 87.068 32C90.572 32 93.2973 32.9733 95.244 34.92C97.1907 36.8667 98.164 39.446 98.164 42.658C98.164 45.7727 96.7527 48.5467 93.93 50.98C91.2047 53.4133 88.1387 54.63 84.732 54.63C81.3253 54.63 78.6487 53.7053 76.702 51.856Z" fill="black"/>
</svg>
