<svg width="244" height="223" viewBox="0 0 244 223" fill="none" xmlns="http://www.w3.org/2000/svg">
<path d="M107 204H137C139.209 204 141 205.791 141 208V216.5C141 218.709 139.209 220.5 137 220.5H107C104.791 220.5 103 218.709 103 216.5V208C103 205.791 104.791 204 107 204Z" fill="#A3A3A3" stroke="black" stroke-width="4"/>
<path d="M107 177H137C143.627 177 149 182.373 149 189V195C149 201.627 143.627 207 137 207H107C100.373 207 95 201.627 95 195V189C95 182.373 100.373 177 107 177Z" fill="#A3A3A3" stroke="black" stroke-width="4"/>
<path d="M199 86.5157C199 111.686 187.679 134.108 170.025 148.673C162.694 154.722 157.082 163.397 157.082 173.3V175.5C157.082 182.68 151.261 188.5 144.082 188.5H101.531C94.3509 188.5 88.5306 182.68 88.5306 175.5V174.56C88.5306 164.429 82.6645 155.601 75.0572 149.551C56.7853 135.017 45 112.196 45 86.5157C45 42.5409 79.5327 7 122 7C164.467 7 199 42.5409 199 86.5157Z" fill="#F0F5D1" stroke="black" stroke-width="4"/>
<path fill-rule="evenodd" clip-rule="evenodd" d="M166.718 104.794C168.793 106.229 169.375 109.059 168.006 111.201L160.16 123.479C158.76 125.669 155.851 126.311 153.66 124.913C153.659 124.913 153.658 124.912 153.657 124.911L151.857 123.767C148.982 121.94 145.913 121.031 143.147 121.754C139.764 122.639 136.86 124.337 134.416 126.723C132.853 128.25 132.077 130.549 131.96 133.133L131.824 136.158C131.707 138.755 129.506 140.766 126.908 140.649L112.352 139.993C109.759 139.876 107.751 137.683 107.86 135.093C108.001 130.685 106.404 126.579 103.125 124.294C101.294 123.019 99.3485 121.859 97.3398 120.814C94.6566 119.418 91.3618 119.57 88.4838 121.063L87.0744 121.794C84.7663 122.991 81.9246 122.091 80.7272 119.783L74.0172 106.848C72.8199 104.54 73.7203 101.698 76.0284 100.501L77.9072 99.5262C80.8716 97.9884 83.2113 95.9909 84.1315 93.3885C85.3602 89.9137 85.4071 86.4455 84.844 83.2784C84.5409 81.5737 83.3637 80.0277 81.6381 78.9144L77.0758 75.9708C77.074 75.9697 77.0723 75.9685 77.0705 75.9674C74.8838 74.566 74.2448 71.6576 75.6439 69.4684L83.4905 57.1901C84.8907 54.9991 87.8019 54.358 89.9929 55.7582L93.9749 58.303C96.2129 59.7332 98.4273 60.5743 100.522 60.3235C104.423 59.8563 107.597 57.7936 110.376 54.08C111.5 52.5787 112.004 50.5969 111.986 48.442L111.951 44.3423L111.954 44.2856C112.071 41.688 114.271 39.6773 116.869 39.7944L131.425 40.4506C134.023 40.5677 136.034 42.7683 135.917 45.3659C135.712 49.9155 137.434 54.226 140.884 56.6752C142.517 57.8348 144.171 58.8686 145.831 59.7641C148.624 61.27 152.122 61.0261 155.257 59.3999L156.826 58.5854L156.957 58.538C157.925 58.1878 159.069 58.1329 160.123 58.4048C161.198 58.6823 162.376 59.3613 163.05 60.6607L169.76 73.5952C170.957 75.9017 170.058 78.7411 167.754 79.9399C167.752 79.9407 167.751 79.9416 167.749 79.9424L165.855 80.9355C162.22 82.8409 159.715 84.8139 159.311 87.6906C158.943 90.3117 158.864 93.5321 159.104 96.2301C159.225 97.582 159.419 98.7292 159.665 99.5723C159.788 99.9934 159.909 100.287 160.009 100.472C160.043 100.535 160.069 100.575 160.085 100.598C162.646 102.409 165.863 104.285 166.413 104.603C166.477 104.64 166.592 104.707 166.718 104.794ZM109.98 135.173L112.099 135.268C112.088 135.525 112.286 135.742 112.543 135.754L127.1 136.41C127.356 136.422 127.573 136.223 127.585 135.967L127.721 132.942C127.867 129.718 128.854 126.224 131.452 123.688C134.398 120.81 137.946 118.728 142.074 117.649C146.456 116.503 150.771 118.049 154.133 120.186L155.94 121.334L155.942 121.336C156.159 121.474 156.446 121.411 156.584 121.195L164.431 108.916C164.564 108.709 164.51 108.435 164.315 108.292C164.314 108.291 164.314 108.291 164.313 108.29C164.307 108.287 164.3 108.283 164.289 108.277C163.727 107.952 160.308 105.961 157.562 104.01C156.959 103.582 156.553 103.003 156.276 102.489C155.989 101.958 155.767 101.363 155.592 100.761C155.24 99.5558 155.012 98.1106 154.878 96.6066C154.609 93.5929 154.695 90.0479 155.109 87.1C155.84 81.9028 160.298 79.058 163.885 77.1775L165.791 76.178L165.795 76.1759C166.023 76.0577 166.112 75.7771 165.994 75.5492L159.284 62.6146C159.283 62.6131 159.284 62.6148 159.284 62.6146C159.283 62.614 159.277 62.6072 159.264 62.5977C159.236 62.5772 159.172 62.5416 159.063 62.5134C158.953 62.4852 158.824 62.4714 158.693 62.4772C158.612 62.4807 158.543 62.491 158.489 62.503L157.211 63.1663C153.165 65.2652 148.145 65.8324 143.818 63.4989C141.993 62.5149 140.191 61.3877 138.427 60.1349C133.55 56.6718 131.423 50.8266 131.678 45.1748C131.689 44.9183 131.491 44.701 131.234 44.6894L116.678 44.0332C116.433 44.0221 116.223 44.2029 116.195 44.4428L116.229 48.4063C116.252 51.1909 115.61 54.1691 113.773 56.6225C110.47 61.0359 106.336 63.9007 101.026 64.5366C97.4824 64.9609 94.2365 63.5057 91.69 61.8783L87.708 59.3336C87.4916 59.1953 87.2041 59.2586 87.0659 59.475L79.2193 71.7533C79.081 71.9696 79.1443 72.2571 79.3606 72.3954L79.3645 72.3979L83.9385 75.3489C86.368 76.9164 88.4592 79.3721 89.0216 82.5358C89.685 86.2669 89.6537 90.4994 88.1319 94.803C86.6829 98.9009 83.2052 101.558 79.8611 103.293L77.9823 104.267C77.7544 104.386 77.6655 104.666 77.7837 104.894L84.4937 117.829C84.6119 118.057 84.8926 118.145 85.1205 118.027L86.5299 117.296C90.435 115.27 95.2024 114.919 99.2982 117.05C101.45 118.17 103.554 119.422 105.551 120.813C110.332 124.144 112.278 129.833 112.1 135.242L109.98 135.173Z" fill="black" fill-opacity="0.78"/>
<path fill-rule="evenodd" clip-rule="evenodd" d="M105.09 79.4909C99.1677 88.7588 101.879 101.073 111.147 106.996C120.415 112.919 132.73 110.207 138.653 100.939C144.575 91.6713 141.864 79.3568 132.596 73.434C123.328 67.5112 111.013 70.2229 105.09 79.4909ZM101.515 77.206C94.3304 88.4485 97.6199 103.387 108.862 110.571C120.105 117.756 135.043 114.467 142.228 103.224C149.413 91.9815 146.123 77.0433 134.881 69.8586C123.638 62.6739 108.7 65.9634 101.515 77.206Z" fill="black" fill-opacity="0.78"/>
<rect x="243.434" y="92.5565" width="5.19883" height="28" rx="2.59942" transform="rotate(97.2972 243.434 92.5565)" fill="#505050"/>
<rect x="229.424" y="136.967" width="5.19883" height="28" rx="2.59942" transform="rotate(127.297 229.424 136.967)" fill="#505050"/>
<rect x="204.067" y="166.514" width="5.19883" height="28" rx="2.59942" transform="rotate(155.036 204.067 166.514)" fill="#505050"/>
<rect y="79.2783" width="5.19883" height="28" rx="2.59942" transform="rotate(-87.89 0 79.2783)" fill="#505050"/>
<rect x="12.1998" y="36.5903" width="5.19883" height="28" rx="2.59942" transform="rotate(-57.89 12.1998 36.5903)" fill="#505050"/>
<rect x="36.0308" y="2.43188" width="5.19883" height="28" rx="2.59942" transform="rotate(-27.89 36.0308 2.43188)" fill="#505050"/>
</svg>
