<svg width="459" height="459" viewBox="0 0 459 459" fill="none" xmlns="http://www.w3.org/2000/svg">
<circle cx="229" cy="230" r="229" fill="#91DBF7"/>
<path d="M284.656 179.051C286.057 177.285 283.921 174.911 282.017 176.119L134.284 269.888L152.562 333.727C153.176 335.872 155.903 336.513 157.409 334.867L184.487 305.258L284.656 179.051Z" fill="#DDDDDD"/>
<path d="M134.284 269.888L282.017 176.119C283.921 174.911 286.057 177.285 284.656 179.051L184.487 305.258L227.671 405.75C228.662 408.056 231.933 408.051 232.916 405.742L363.77 98.395C364.776 96.032 362.392 93.6471 360.029 94.6532L52.3697 225.64C50.1085 226.603 50.042 229.784 52.261 230.84L134.284 269.888Z" fill="white"/>
</svg>
