<svg width="320" height="400" viewBox="0 0 320 400" fill="none" xmlns="http://www.w3.org/2000/svg">
<path d="M107.145 266.822C77.4342 257.345 64.2616 246.64 52.0061 238.326C49.6025 222.998 52.0642 199.75 53.5956 190.042C55.9505 175.113 58.2644 155.598 81.1083 116.552C83.1863 113 86.3134 110.138 90.0779 108.476C98.985 104.543 108.379 101.375 129.631 96.6119C130.324 96.6119 133.794 104.686 135.442 108.724C146.485 106.518 171.564 106.191 185.822 108.724C186.208 107.628 187.904 103.733 191.596 96.9226C196.273 95.938 223.773 105.58 236.938 110.525C272.747 170.75 271.391 201.676 269.509 238.256C247.066 255.828 220.348 265.185 213.999 266.931C211.671 265.449 201.355 246.986 202.307 247.356C203.26 247.726 221.247 238.574 220.93 238.256C220.612 237.939 220.189 238.203 216.042 234.615C161.722 262.847 105.271 234.372 105.174 234.615C105.097 234.81 102.13 237.158 100.656 238.307C100.494 238.502 103.988 240.616 119.258 247.521C113.268 259.102 115.664 254.709 107.145 266.822Z" fill="#5467F2"/>
<path d="M161.764 60.1097H168.324C162.861 82.3613 159.461 92.8179 167.464 111.868C175.466 130.917 153.822 111.868 153.822 111.868C152.047 91.5946 155.266 81.4286 161.764 60.1097Z" fill="#5467F2"/>
<path d="M86 181.629C86 155.745 108.582 135.967 134.415 137.599C153.164 138.784 169.819 138.923 187.124 137.99C213.232 136.582 236.32 156.313 236.32 182.459C236.32 204.088 220.305 222.636 198.738 224.275C174.012 226.153 151.739 226.038 124.457 223.979C102.518 222.322 86 203.631 86 181.629Z" fill="#6546EE" fill-opacity="0.86"/>
<ellipse cx="126.117" cy="182.189" rx="20.1175" ry="24.1889" fill="#D9D9D9"/>
<ellipse cx="197.878" cy="183.512" rx="19.878" ry="22.5124" fill="#D9D9D9"/>
<path d="M155.171 56.0077C154.992 55.6983 154.992 55.3171 155.171 55.0077L159.347 47.7738C159.526 47.4644 159.856 47.2738 160.213 47.2738H168.566C168.924 47.2738 169.254 47.4644 169.432 47.7738L173.609 55.0077C173.788 55.3171 173.788 55.6983 173.609 56.0077L169.432 63.2417C169.254 63.5511 168.924 63.7417 168.566 63.7417H160.213C159.856 63.7417 159.526 63.5511 159.347 63.2417L155.171 56.0077Z" fill="#8F8F8F"/>
<circle cx="164.39" cy="55.5078" r="4.58356" fill="#D9D9D9"/>
<path d="M81.792 274.384V310H78.528V305.008C77.504 306.704 76.144 308 74.448 308.896C72.784 309.792 70.896 310.24 68.784 310.24C66.416 310.24 64.272 309.696 62.352 308.608C60.432 307.52 58.928 306 57.84 304.048C56.752 302.096 56.208 299.872 56.208 297.376C56.208 294.88 56.752 292.656 57.84 290.704C58.928 288.752 60.432 287.248 62.352 286.192C64.272 285.104 66.416 284.56 68.784 284.56C70.832 284.56 72.672 284.992 74.304 285.856C75.968 286.688 77.328 287.92 78.384 289.552V274.384H81.792ZM69.072 307.216C70.832 307.216 72.416 306.816 73.824 306.016C75.264 305.184 76.384 304.016 77.184 302.512C78.016 301.008 78.432 299.296 78.432 297.376C78.432 295.456 78.016 293.744 77.184 292.24C76.384 290.736 75.264 289.584 73.824 288.784C72.416 287.952 70.832 287.536 69.072 287.536C67.28 287.536 65.664 287.952 64.224 288.784C62.816 289.584 61.696 290.736 60.864 292.24C60.064 293.744 59.664 295.456 59.664 297.376C59.664 299.296 60.064 301.008 60.864 302.512C61.696 304.016 62.816 305.184 64.224 306.016C65.664 306.816 67.28 307.216 69.072 307.216ZM91.2833 284.752H94.6913V310H91.2833V284.752ZM93.0113 279.232C92.3073 279.232 91.7153 278.992 91.2353 278.512C90.7553 278.032 90.5153 277.456 90.5153 276.784C90.5153 276.144 90.7553 275.584 91.2353 275.104C91.7153 274.624 92.3073 274.384 93.0113 274.384C93.7153 274.384 94.3073 274.624 94.7873 275.104C95.2673 275.552 95.5073 276.096 95.5073 276.736C95.5073 277.44 95.2673 278.032 94.7873 278.512C94.3073 278.992 93.7153 279.232 93.0113 279.232ZM110.942 310.24C108.894 310.24 106.926 309.952 105.038 309.376C103.182 308.768 101.726 308.016 100.67 307.12L102.206 304.432C103.262 305.264 104.59 305.952 106.19 306.496C107.79 307.008 109.454 307.264 111.182 307.264C113.486 307.264 115.182 306.912 116.27 306.208C117.39 305.472 117.95 304.448 117.95 303.136C117.95 302.208 117.646 301.488 117.038 300.976C116.43 300.432 115.662 300.032 114.734 299.776C113.806 299.488 112.574 299.216 111.038 298.96C108.99 298.576 107.342 298.192 106.094 297.808C104.846 297.392 103.774 296.704 102.878 295.744C102.014 294.784 101.582 293.456 101.582 291.76C101.582 289.648 102.462 287.92 104.222 286.576C105.982 285.232 108.43 284.56 111.566 284.56C113.198 284.56 114.83 284.784 116.462 285.232C118.094 285.648 119.438 286.208 120.494 286.912L119.006 289.648C116.926 288.208 114.446 287.488 111.566 287.488C109.39 287.488 107.742 287.872 106.622 288.64C105.534 289.408 104.99 290.416 104.99 291.664C104.99 292.624 105.294 293.392 105.902 293.968C106.542 294.544 107.326 294.976 108.254 295.264C109.182 295.52 110.462 295.792 112.094 296.08C114.11 296.464 115.726 296.848 116.942 297.232C118.158 297.616 119.198 298.272 120.062 299.2C120.926 300.128 121.358 301.408 121.358 303.04C121.358 305.248 120.43 307.008 118.574 308.32C116.75 309.6 114.206 310.24 110.942 310.24ZM138.122 310.24C135.626 310.24 133.386 309.696 131.402 308.608C129.45 307.52 127.914 306 126.794 304.048C125.674 302.064 125.114 299.84 125.114 297.376C125.114 294.912 125.674 292.704 126.794 290.752C127.914 288.8 129.45 287.28 131.402 286.192C133.386 285.104 135.626 284.56 138.122 284.56C140.298 284.56 142.234 284.992 143.93 285.856C145.658 286.688 147.018 287.92 148.01 289.552L145.466 291.28C144.634 290.032 143.578 289.104 142.298 288.496C141.018 287.856 139.626 287.536 138.122 287.536C136.298 287.536 134.65 287.952 133.178 288.784C131.738 289.584 130.602 290.736 129.77 292.24C128.97 293.744 128.57 295.456 128.57 297.376C128.57 299.328 128.97 301.056 129.77 302.56C130.602 304.032 131.738 305.184 133.178 306.016C134.65 306.816 136.298 307.216 138.122 307.216C139.626 307.216 141.018 306.912 142.298 306.304C143.578 305.696 144.634 304.768 145.466 303.52L148.01 305.248C147.018 306.88 145.658 308.128 143.93 308.992C142.202 309.824 140.266 310.24 138.122 310.24ZM164.603 310.24C162.171 310.24 159.979 309.696 158.027 308.608C156.075 307.488 154.539 305.952 153.419 304C152.299 302.048 151.739 299.84 151.739 297.376C151.739 294.912 152.299 292.704 153.419 290.752C154.539 288.8 156.075 287.28 158.027 286.192C159.979 285.104 162.171 284.56 164.603 284.56C167.035 284.56 169.227 285.104 171.179 286.192C173.131 287.28 174.651 288.8 175.739 290.752C176.859 292.704 177.419 294.912 177.419 297.376C177.419 299.84 176.859 302.048 175.739 304C174.651 305.952 173.131 307.488 171.179 308.608C169.227 309.696 167.035 310.24 164.603 310.24ZM164.603 307.216C166.395 307.216 167.995 306.816 169.403 306.016C170.843 305.184 171.963 304.016 172.763 302.512C173.563 301.008 173.963 299.296 173.963 297.376C173.963 295.456 173.563 293.744 172.763 292.24C171.963 290.736 170.843 289.584 169.403 288.784C167.995 287.952 166.395 287.536 164.603 287.536C162.811 287.536 161.195 287.952 159.755 288.784C158.347 289.584 157.227 290.736 156.395 292.24C155.595 293.744 155.195 295.456 155.195 297.376C155.195 299.296 155.595 301.008 156.395 302.512C157.227 304.016 158.347 305.184 159.755 306.016C161.195 306.816 162.811 307.216 164.603 307.216ZM187.641 289.696C188.441 288 189.625 286.72 191.193 285.856C192.793 284.992 194.761 284.56 197.097 284.56V287.872L196.281 287.824C193.625 287.824 191.545 288.64 190.041 290.272C188.537 291.904 187.785 294.192 187.785 297.136V310H184.377V284.752H187.641V289.696ZM226.073 274.384V310H222.809V305.008C221.785 306.704 220.425 308 218.729 308.896C217.065 309.792 215.177 310.24 213.065 310.24C210.697 310.24 208.553 309.696 206.633 308.608C204.713 307.52 203.209 306 202.121 304.048C201.033 302.096 200.489 299.872 200.489 297.376C200.489 294.88 201.033 292.656 202.121 290.704C203.209 288.752 204.713 287.248 206.633 286.192C208.553 285.104 210.697 284.56 213.065 284.56C215.113 284.56 216.953 284.992 218.585 285.856C220.249 286.688 221.609 287.92 222.665 289.552V274.384H226.073ZM213.353 307.216C215.113 307.216 216.697 306.816 218.105 306.016C219.545 305.184 220.665 304.016 221.465 302.512C222.297 301.008 222.713 299.296 222.713 297.376C222.713 295.456 222.297 293.744 221.465 292.24C220.665 290.736 219.545 289.584 218.105 288.784C216.697 287.952 215.113 287.536 213.353 287.536C211.561 287.536 209.945 287.952 208.505 288.784C207.097 289.584 205.977 290.736 205.145 292.24C204.345 293.744 203.945 295.456 203.945 297.376C203.945 299.296 204.345 301.008 205.145 302.512C205.977 304.016 207.097 305.184 208.505 306.016C209.945 306.816 211.561 307.216 213.353 307.216ZM235.901 310.24C235.197 310.24 234.589 309.984 234.077 309.472C233.597 308.96 233.357 308.336 233.357 307.6C233.357 306.864 233.597 306.256 234.077 305.776C234.589 305.264 235.197 305.008 235.901 305.008C236.605 305.008 237.213 305.264 237.725 305.776C238.237 306.256 238.493 306.864 238.493 307.6C238.493 308.336 238.237 308.96 237.725 309.472C237.213 309.984 236.605 310.24 235.901 310.24ZM258.744 284.56C261.112 284.56 263.256 285.104 265.176 286.192C267.096 287.248 268.6 288.752 269.688 290.704C270.776 292.656 271.32 294.88 271.32 297.376C271.32 299.904 270.776 302.144 269.688 304.096C268.6 306.048 267.096 307.568 265.176 308.656C263.288 309.712 261.144 310.24 258.744 310.24C256.696 310.24 254.84 309.824 253.176 308.992C251.544 308.128 250.2 306.88 249.144 305.248V319.312H245.736V284.752H249V289.744C250.024 288.08 251.368 286.8 253.032 285.904C254.728 285.008 256.632 284.56 258.744 284.56ZM258.504 307.216C260.264 307.216 261.864 306.816 263.304 306.016C264.744 305.184 265.864 304.016 266.664 302.512C267.496 301.008 267.912 299.296 267.912 297.376C267.912 295.456 267.496 293.76 266.664 292.288C265.864 290.784 264.744 289.616 263.304 288.784C261.864 287.952 260.264 287.536 258.504 287.536C256.712 287.536 255.096 287.952 253.656 288.784C252.248 289.616 251.128 290.784 250.296 292.288C249.496 293.76 249.096 295.456 249.096 297.376C249.096 299.296 249.496 301.008 250.296 302.512C251.128 304.016 252.248 305.184 253.656 306.016C255.096 306.816 256.712 307.216 258.504 307.216ZM298.781 284.752L286.157 313.024C285.133 315.392 283.949 317.072 282.605 318.064C281.261 319.056 279.645 319.552 277.757 319.552C276.541 319.552 275.405 319.36 274.349 318.976C273.293 318.592 272.38 318.016 271.612 317.248L273.197 314.704C274.477 315.984 276.013 316.624 277.805 316.624C278.957 316.624 279.933 316.304 280.733 315.664C281.565 315.024 282.333 313.936 283.037 312.4L284.141 309.952L272.861 284.752H276.413L285.917 306.208L295.421 284.752H298.781Z" fill="black"/>
<path d="M33.3726 275C24.4878 275 25.0423 278.853 25.0423 278.853L25.0532 282.845H33.5312V284.042H21.6837C21.6837 284.042 16 283.397 16 292.363C16 301.326 20.9619 301.009 20.9619 301.009H23.9235V296.849C23.9235 296.849 23.7638 291.887 28.8066 291.887H37.2146C37.2146 291.887 41.9391 291.964 41.9391 287.321V279.645C41.9391 279.645 42.6566 275 33.3726 275ZM28.6973 277.684C29.5405 277.684 30.2229 278.366 30.2229 279.209C30.2229 280.053 29.5405 280.735 28.6973 280.735C28.4968 280.735 28.2983 280.696 28.1131 280.62C27.9278 280.543 27.7595 280.431 27.6178 280.289C27.4761 280.147 27.3637 279.979 27.2872 279.794C27.2106 279.608 27.1713 279.41 27.1716 279.209C27.1716 278.366 27.854 277.684 28.6973 277.684Z" fill="url(#paint0_linear_318_66)"/>
<path d="M33.6241 309.814C42.5089 309.814 41.9544 305.961 41.9544 305.961L41.9435 301.969H33.4655V300.772H45.3119C45.3119 300.772 50.9967 301.417 50.9967 292.452C50.9967 283.488 46.0348 283.806 46.0348 283.806H43.0732V287.965C43.0732 287.965 43.2329 292.927 38.1901 292.927H29.7821C29.7821 292.927 25.0575 292.851 25.0575 297.493V305.169C25.0575 305.169 24.3401 309.814 33.6241 309.814ZM38.2994 307.13C38.099 307.131 37.9005 307.091 37.7152 307.015C37.53 306.938 37.3617 306.826 37.22 306.684C37.0783 306.542 36.9659 306.374 36.8893 306.189C36.8128 306.004 36.7735 305.805 36.7738 305.605C36.7738 304.763 37.4562 304.08 38.2994 304.08C39.1426 304.08 39.8251 304.761 39.8251 305.605C39.8251 306.449 39.1426 307.13 38.2994 307.13Z" fill="url(#paint1_linear_318_66)"/>
<defs>
<linearGradient id="paint0_linear_318_66" x1="19.363" y1="278.043" x2="36.6678" y2="295.405" gradientUnits="userSpaceOnUse">
<stop stop-color="#387EB8"/>
<stop offset="1" stop-color="#366994"/>
</linearGradient>
<linearGradient id="paint1_linear_318_66" x1="30.0085" y1="289.088" x2="48.5939" y2="306.894" gradientUnits="userSpaceOnUse">
<stop stop-color="#FFE052"/>
<stop offset="1" stop-color="#FFC331"/>
</linearGradient>
</defs>
</svg>
