<svg width="400" height="396" viewBox="0 0 400 396" fill="none" xmlns="http://www.w3.org/2000/svg">
<mask id="path-1-inside-1_20_39" fill="white">
<path fill-rule="evenodd" clip-rule="evenodd" d="M213.835 19.1818H201.89C201.715 19.7577 201.541 20.329 201.368 20.896C190.846 55.4059 185.228 73.8317 186.814 104.659C173.744 105.071 161.874 106.122 153.962 107.702C150.96 100.351 144.641 85.6481 143.379 85.6481C100.924 95.1632 84.4578 101.184 66.6384 109.381C62.9 111.101 59.764 113.952 57.6608 117.489C15.3902 188.574 9.71917 225.009 5.46291 252.354C5.2831 253.509 5.10581 254.648 4.9284 255.773C2.13999 273.45 -2.34261 315.781 2.0342 343.692C4.73417 345.524 7.45858 347.419 10.2578 349.366C30.5948 363.515 54.8811 380.412 102.435 395.581C110.563 384.025 113.234 380.719 115.505 377.157C117.568 373.921 119.3 370.474 124.492 360.436C96.6872 347.863 90.3257 344.012 90.6206 343.658C93.3038 341.565 98.7055 337.289 98.847 336.936C98.8592 336.905 99.3601 337.124 100.315 337.54C113.192 343.158 208.64 384.795 300.724 336.936C306.424 341.867 308.261 342.802 309.067 343.213C309.329 343.346 309.483 343.424 309.624 343.566C310.202 344.144 277.449 360.809 275.715 360.135C273.981 359.461 292.766 393.081 297.004 395.779C308.565 392.599 357.215 375.561 398.081 343.566C401.508 276.957 403.977 220.644 338.773 110.981C314.801 101.978 264.728 84.4208 256.211 86.2138C249.488 98.6151 246.4 105.707 245.697 107.702C235.538 105.898 222.362 104.89 208.88 104.573C199.479 77.1324 204.055 58.6661 212.095 26.2237C212.659 23.9478 213.24 21.6032 213.835 19.1818Z"/>
</mask>
<path fill-rule="evenodd" clip-rule="evenodd" d="M213.835 19.1818H201.89C201.715 19.7577 201.541 20.329 201.368 20.896C190.846 55.4059 185.228 73.8317 186.814 104.659C173.744 105.071 161.874 106.122 153.962 107.702C150.96 100.351 144.641 85.6481 143.379 85.6481C100.924 95.1632 84.4578 101.184 66.6384 109.381C62.9 111.101 59.764 113.952 57.6608 117.489C15.3902 188.574 9.71917 225.009 5.46291 252.354C5.2831 253.509 5.10581 254.648 4.9284 255.773C2.13999 273.45 -2.34261 315.781 2.0342 343.692C4.73417 345.524 7.45858 347.419 10.2578 349.366C30.5948 363.515 54.8811 380.412 102.435 395.581C110.563 384.025 113.234 380.719 115.505 377.157C117.568 373.921 119.3 370.474 124.492 360.436C96.6872 347.863 90.3257 344.012 90.6206 343.658C93.3038 341.565 98.7055 337.289 98.847 336.936C98.8592 336.905 99.3601 337.124 100.315 337.54C113.192 343.158 208.64 384.795 300.724 336.936C306.424 341.867 308.261 342.802 309.067 343.213C309.329 343.346 309.483 343.424 309.624 343.566C310.202 344.144 277.449 360.809 275.715 360.135C273.981 359.461 292.766 393.081 297.004 395.779C308.565 392.599 357.215 375.561 398.081 343.566C401.508 276.957 403.977 220.644 338.773 110.981C314.801 101.978 264.728 84.4208 256.211 86.2138C249.488 98.6151 246.4 105.707 245.697 107.702C235.538 105.898 222.362 104.89 208.88 104.573C199.479 77.1324 204.055 58.6661 212.095 26.2237C212.659 23.9478 213.24 21.6032 213.835 19.1818Z" fill="#5467F2"/>
<path d="M201.89 19.1818V18.1818H201.15L200.934 18.8903L201.89 19.1818ZM213.835 19.1818L214.806 19.4203L215.11 18.1818H213.835V19.1818ZM201.368 20.896L200.411 20.6044L200.411 20.6044L201.368 20.896ZM186.814 104.659L186.845 105.658L187.865 105.626L187.812 104.607L186.814 104.659ZM153.962 107.702L153.036 108.08L153.348 108.845L154.158 108.683L153.962 107.702ZM143.379 85.6481V84.6481H143.269L143.161 84.6723L143.379 85.6481ZM66.6384 109.381L67.0564 110.29L67.0564 110.29L66.6384 109.381ZM57.6608 117.489L56.8013 116.978L56.8013 116.978L57.6608 117.489ZM5.46291 252.354L6.45101 252.508L6.45101 252.508L5.46291 252.354ZM4.9284 255.773L3.94061 255.617L3.94061 255.617L4.9284 255.773ZM2.0342 343.692L1.04627 343.847L1.11353 344.276L1.47279 344.519L2.0342 343.692ZM10.2578 349.366L9.68671 350.187L9.68671 350.187L10.2578 349.366ZM102.435 395.581L102.131 396.534L102.831 396.757L103.253 396.156L102.435 395.581ZM115.505 377.157L114.662 376.62L114.662 376.62L115.505 377.157ZM124.492 360.436L125.38 360.895L125.864 359.959L124.904 359.525L124.492 360.436ZM90.6206 343.658L90.0055 342.87L89.921 342.936L89.8524 343.018L90.6206 343.658ZM98.847 336.936L99.7755 337.307L99.7755 337.307L98.847 336.936ZM100.315 337.54L100.714 336.623L100.714 336.623L100.315 337.54ZM300.724 336.936L301.379 336.179L300.866 335.735L300.263 336.048L300.724 336.936ZM309.067 343.213L308.614 344.104L308.614 344.104L309.067 343.213ZM297.004 395.779L296.468 396.622L296.842 396.86L297.27 396.743L297.004 395.779ZM398.081 343.566L398.697 344.353L399.056 344.072L399.079 343.617L398.081 343.566ZM338.773 110.981L339.632 110.47L339.453 110.169L339.124 110.045L338.773 110.981ZM256.211 86.2138L256.005 85.2352L255.553 85.3305L255.332 85.7372L256.211 86.2138ZM245.697 107.702L245.522 108.687L246.358 108.835L246.64 108.035L245.697 107.702ZM208.88 104.573L207.934 104.897L208.16 105.557L208.857 105.573L208.88 104.573ZM212.095 26.2237L211.125 25.9832L211.125 25.9832L212.095 26.2237ZM201.89 20.1818H213.835V18.1818H201.89V20.1818ZM202.324 21.1877C202.497 20.6207 202.671 20.0493 202.847 19.4734L200.934 18.8903C200.758 19.466 200.584 20.0374 200.411 20.6044L202.324 21.1877ZM187.812 104.607C186.237 73.974 191.802 55.7 202.324 21.1877L200.411 20.6044C189.89 55.1119 184.22 73.6894 185.815 104.71L187.812 104.607ZM154.158 108.683C161.99 107.118 173.796 106.07 186.845 105.658L186.782 103.659C173.692 104.072 161.759 105.125 153.766 106.722L154.158 108.683ZM143.379 86.6481C143.182 86.6481 143.052 86.5793 143.016 86.5586C142.974 86.5345 142.964 86.5206 142.988 86.5432C143.037 86.589 143.127 86.6916 143.261 86.878C143.525 87.2442 143.864 87.8048 144.266 88.5401C145.066 90.0023 146.056 92.0448 147.11 94.3361C149.214 98.913 151.538 104.412 153.036 108.08L154.887 107.324C153.384 103.641 151.048 98.1131 148.927 93.5006C147.868 91.1974 146.854 89.1046 146.021 87.5804C145.606 86.8224 145.221 86.1769 144.885 85.7103C144.72 85.4803 144.543 85.2599 144.359 85.0867C144.266 84.9998 144.149 84.9025 144.008 84.8223C143.874 84.7455 143.656 84.6481 143.379 84.6481V86.6481ZM67.0564 110.29C84.793 102.13 101.188 96.129 143.598 86.6238L143.161 84.6723C100.661 94.1975 84.1226 100.237 66.2205 108.473L67.0564 110.29ZM58.5203 118C60.5219 114.634 63.5053 111.923 67.0564 110.29L66.2205 108.473C62.2946 110.279 59.0062 113.27 56.8013 116.978L58.5203 118ZM6.45101 252.508C10.6919 225.261 16.3279 188.954 58.5203 118L56.8013 116.978C14.4524 188.195 8.7464 224.756 4.47481 252.2L6.45101 252.508ZM5.91618 255.929C6.09378 254.803 6.27123 253.663 6.45101 252.508L4.47481 252.2C4.29497 253.355 4.11784 254.493 3.94061 255.617L5.91618 255.929ZM3.02213 343.537C-1.3289 315.791 3.13011 273.591 5.91618 255.929L3.94061 255.617C1.14987 273.309 -3.35632 315.772 1.04627 343.847L3.02213 343.537ZM10.8289 348.546C8.03057 346.599 5.30128 344.7 2.59561 342.864L1.47279 344.519C4.16705 346.347 6.88658 348.239 9.68671 350.187L10.8289 348.546ZM102.739 394.628C55.3231 379.503 31.1317 362.67 10.8289 348.546L9.68671 350.187C30.0579 364.36 54.4392 381.32 102.131 396.534L102.739 394.628ZM114.662 376.62C112.404 380.161 109.787 383.389 101.617 395.006L103.253 396.156C111.339 384.66 114.064 381.277 116.348 377.695L114.662 376.62ZM123.604 359.976C118.396 370.044 116.693 373.433 114.662 376.62L116.348 377.695C118.442 374.41 120.203 370.905 125.38 360.895L123.604 359.976ZM89.8524 343.018C89.5928 343.33 89.583 343.69 89.6394 343.93C89.6878 344.137 89.7868 344.285 89.8405 344.358C89.954 344.513 90.1 344.643 90.2176 344.739C90.4712 344.947 90.8505 345.203 91.3555 345.513C92.3774 346.141 94.0404 347.062 96.5627 348.355C101.613 350.944 110.172 355.058 124.08 361.347L124.904 359.525C111.008 353.241 102.483 349.143 97.4752 346.575C94.9683 345.29 93.3585 344.396 92.4017 343.809C91.9173 343.511 91.6308 343.311 91.4843 343.191C91.4019 343.124 91.4142 343.122 91.4534 343.176C91.4699 343.198 91.5465 343.303 91.5864 343.473C91.6344 343.677 91.63 344.009 91.3888 344.299L89.8524 343.018ZM97.9186 336.564C97.9482 336.49 97.9801 336.438 97.9943 336.416C98.0109 336.39 98.0244 336.372 98.0301 336.365C98.0411 336.351 98.0438 336.349 98.0308 336.363C98.0057 336.39 97.9582 336.437 97.8819 336.508C97.7317 336.648 97.5118 336.841 97.2314 337.079C96.6731 337.554 95.9087 338.181 95.0589 338.866C93.3612 340.237 91.3446 341.825 90.0055 342.87L91.2357 344.447C92.5798 343.398 94.6057 341.802 96.315 340.423C97.1687 339.734 97.949 339.094 98.5271 338.603C98.815 338.358 99.0613 338.142 99.244 337.972C99.3342 337.889 99.4199 337.806 99.4908 337.73C99.5258 337.693 99.5672 337.646 99.6071 337.595C99.6331 337.562 99.7162 337.455 99.7755 337.307L97.9186 336.564ZM100.714 336.623C100.241 336.417 99.8681 336.254 99.6131 336.148C99.4885 336.096 99.3739 336.049 99.2834 336.017C99.2441 336.003 99.1752 335.979 99.0997 335.961C99.0711 335.955 98.9781 335.934 98.8606 335.933C98.8057 335.933 98.6739 335.935 98.5182 335.99C98.3525 336.048 98.0623 336.205 97.9186 336.564L99.7755 337.307C99.6325 337.664 99.3441 337.82 99.1811 337.877C99.028 337.931 98.8999 337.933 98.8495 337.933C98.7412 337.932 98.6611 337.913 98.6492 337.91C98.6072 337.9 98.5868 337.892 98.6111 337.9C98.6478 337.914 98.7204 337.942 98.8418 337.993C99.0789 338.092 99.4339 338.247 99.9148 338.457L100.714 336.623ZM300.263 336.048C208.63 383.673 113.588 342.24 100.714 336.623L99.9148 338.457C112.796 344.076 208.65 385.917 301.186 337.823L300.263 336.048ZM309.521 342.321C308.813 341.961 307.045 341.082 301.379 336.179L300.07 337.692C305.804 342.653 307.709 343.643 308.614 344.104L309.521 342.321ZM310.331 342.859C310.057 342.584 309.751 342.439 309.521 342.321L308.614 344.104C308.755 344.176 308.822 344.21 308.872 344.241C308.908 344.263 308.915 344.27 308.917 344.273L310.331 342.859ZM275.352 361.067C275.641 361.179 275.928 361.158 276.07 361.143C276.25 361.124 276.443 361.084 276.634 361.036C277.019 360.938 277.497 360.779 278.04 360.578C279.132 360.175 280.574 359.566 282.234 358.825C285.557 357.34 289.81 355.295 293.983 353.215C298.156 351.134 302.261 349.013 305.29 347.373C306.802 346.554 308.057 345.849 308.921 345.327C309.349 345.069 309.704 344.841 309.951 344.659C310.066 344.575 310.204 344.467 310.315 344.347C310.362 344.297 310.474 344.172 310.55 343.99C310.632 343.794 310.752 343.279 310.331 342.859L308.917 344.273C308.515 343.87 308.637 343.381 308.704 343.219C308.767 343.07 308.849 342.987 308.85 342.985C308.872 342.962 308.858 342.98 308.765 343.049C308.594 343.175 308.303 343.364 307.887 343.615C307.064 344.113 305.842 344.799 304.337 345.614C301.333 347.24 297.25 349.351 293.09 351.425C288.93 353.499 284.705 355.53 281.418 356.999C279.772 357.734 278.376 358.322 277.346 358.702C276.829 358.894 276.426 359.025 276.141 359.097C275.997 359.134 275.908 359.149 275.862 359.154C275.779 359.163 275.897 359.133 276.077 359.203L275.352 361.067ZM297.541 394.935C297.178 394.703 296.517 394.02 295.591 392.83C294.697 391.683 293.638 390.175 292.48 388.425C290.165 384.927 287.484 380.511 284.985 376.192C282.487 371.873 280.177 367.665 278.604 364.586C277.815 363.041 277.222 361.802 276.882 360.98C276.705 360.553 276.623 360.301 276.601 360.192C276.596 360.17 276.6 360.18 276.601 360.213C276.602 360.231 276.608 360.347 276.556 360.497C276.496 360.672 276.33 360.95 275.976 361.073C275.671 361.179 275.426 361.096 275.352 361.067L276.077 359.203C275.949 359.153 275.66 359.066 275.321 359.183C274.932 359.318 274.742 359.625 274.666 359.844C274.599 360.038 274.599 360.213 274.604 360.306C274.609 360.414 274.625 360.514 274.642 360.597C274.706 360.907 274.854 361.311 275.034 361.745C275.406 362.643 276.029 363.941 276.823 365.495C278.417 368.615 280.744 372.854 283.254 377.193C285.765 381.532 288.467 385.985 290.812 389.528C291.984 391.299 293.074 392.854 294.013 394.059C294.918 395.222 295.772 396.179 296.468 396.622L297.541 394.935ZM397.464 342.778C356.735 374.666 308.219 391.657 296.739 394.814L297.27 396.743C308.91 393.542 357.695 376.455 398.697 344.353L397.464 342.778ZM337.913 111.492C370.474 166.253 386.105 207.64 393.182 243.612C400.261 279.589 398.796 310.206 397.082 343.514L399.079 343.617C400.793 310.317 402.276 279.473 395.145 243.226C388.012 206.973 372.276 165.372 339.632 110.47L337.913 111.492ZM256.417 87.1923C257.292 87.0081 258.85 87.0581 261.076 87.3835C263.263 87.7031 265.977 88.269 269.095 89.0326C275.329 90.5592 283.111 92.8592 291.392 95.5018C307.951 100.786 326.445 107.42 338.421 111.918L339.124 110.045C327.128 105.54 308.6 98.8938 292 93.5965C283.702 90.9484 275.87 88.6325 269.571 87.09C266.423 86.319 263.64 85.737 261.365 85.4045C259.129 85.0776 257.259 84.9712 256.005 85.2352L256.417 87.1923ZM246.64 108.035C247.316 106.116 250.372 99.0816 257.09 86.6904L255.332 85.7372C248.603 98.1486 245.484 105.297 244.754 107.37L246.64 108.035ZM208.857 105.573C222.313 105.89 235.433 106.895 245.522 108.687L245.872 106.718C235.643 104.901 222.41 103.891 208.904 103.574L208.857 105.573ZM211.125 25.9832C203.089 58.4104 198.427 77.1463 207.934 104.897L209.826 104.249C200.531 77.1185 205.022 58.9218 213.066 26.4643L211.125 25.9832ZM212.864 18.9434C212.27 21.3635 211.689 23.7072 211.125 25.9832L213.066 26.4643C213.63 24.1885 214.211 21.8428 214.806 19.4203L212.864 18.9434Z" fill="black" mask="url(#path-1-inside-1_20_39)"/>
<path d="M144.693 170.316C183.795 173.019 217.646 173.3 253.427 171.089C297.373 168.375 336.206 201.675 336.206 245.648V256.726C336.206 293.121 309.248 324.257 273.007 327.195C224.545 331.122 181.733 330.901 127.964 326.636C91.2032 323.72 63.4918 292.431 63.4918 255.532V243.975C63.4918 200.58 101.364 167.321 144.693 170.316Z" fill="#A0A0A0" fill-opacity="0.26" stroke="black"/>
<path d="M169.193 256.289C169.193 280.428 152.934 299.834 133.062 299.834C113.189 299.834 96.93 280.428 96.93 256.289C96.93 232.149 113.189 212.744 133.062 212.744C152.934 212.744 169.193 232.149 169.193 256.289Z" fill="#D9D9D9" stroke="black"/>
<path d="M301.765 256.289C301.765 278.712 285.727 296.781 266.069 296.781C246.412 296.781 230.374 278.712 230.374 256.289C230.374 233.865 246.412 215.796 266.069 215.796C285.727 215.796 301.765 233.865 301.765 256.289Z" fill="#D9D9D9" stroke="black"/>
<path d="M195.643 12.1075L201.135 2.5951C201.225 2.4404 201.39 2.3451 201.568 2.3451H212.552C212.731 2.3451 212.896 2.4404 212.985 2.5951L218.477 12.1075C218.567 12.2622 218.567 12.4528 218.477 12.6075L212.985 22.1199C212.896 22.2746 212.731 22.3699 212.552 22.3699H201.568C201.39 22.3699 201.225 22.2746 201.135 22.1199L195.643 12.6075C195.554 12.4528 195.554 12.2622 195.643 12.1075Z" fill="#8F8F8F" stroke="black"/>
</svg>
