<svg width="1459" height="1458" viewBox="0 0 1459 1458" fill="none" xmlns="http://www.w3.org/2000/svg">
<rect x="0.741211" y="0.183716" width="1457.43" height="1457.43" fill="#F8F8F8"/>
<rect x="185.238" y="181.105" width="19" height="120" transform="rotate(-45 185.238 181.105)" fill="#C9C9C9"/>
<rect x="368.378" y="167.67" width="19" height="120" transform="rotate(45 368.378 167.67)" fill="#C9C9C9"/>
<rect x="270.091" y="265.958" width="19" height="19" transform="rotate(-45 270.091 265.958)" fill="#C9C9C9"/>
<rect x="501.223" y="204.256" width="19" height="120" transform="rotate(-45 501.223 204.256)" fill="black" fill-opacity="0.71"/>
<rect x="684.363" y="190.821" width="19" height="120" transform="rotate(45 684.363 190.821)" fill="black" fill-opacity="0.71"/>
<rect x="586.075" y="289.109" width="19" height="19" transform="rotate(-45 586.075 289.109)" fill="black" fill-opacity="0.71"/>
<path d="M808.361 241.333L813.218 230.918C813.218 230.918 853.309 249.613 878.998 261.592C877.101 265.659 874.141 272.007 874.141 272.007L808.361 241.333Z" fill="#656565"/>
<path d="M944.778 230.918L949.635 241.333L883.855 272.007C883.855 272.007 880.895 265.659 878.998 261.592C904.687 249.613 944.778 230.918 944.778 230.918Z" fill="#656565"/>
<path d="M878.998 261.592C877.101 265.659 874.141 272.007 874.141 272.007L883.855 272.007C883.855 272.007 880.895 265.659 878.998 261.592Z" fill="#656565"/>
<path d="M883.855 272.007L874.141 272.007L879.054 274.127L883.855 272.007Z" fill="#656565"/>
<path d="M1057.64 298.679C1057.64 293.906 1061.51 290.037 1066.28 290.037H1185.7C1190.47 290.037 1194.34 293.906 1194.34 298.679V298.679C1194.34 303.452 1190.47 307.322 1185.7 307.322H1066.28C1061.51 307.322 1057.64 303.452 1057.64 298.679V298.679Z" fill="#505050"/>
<path d="M1057.64 224.964C1057.64 220.191 1061.51 216.322 1066.28 216.322H1185.7C1190.47 216.322 1194.34 220.191 1194.34 224.964V224.964C1194.34 229.737 1190.47 233.607 1185.7 233.607H1066.28C1061.51 233.607 1057.64 229.737 1057.64 224.964V224.964Z" fill="#505050"/>
<path d="M1057.64 261.822C1057.64 257.049 1061.51 253.179 1066.28 253.179H1185.7C1190.47 253.179 1194.34 257.049 1194.34 261.822V261.822C1194.34 266.595 1190.47 270.464 1185.7 270.464H1066.28C1061.51 270.464 1057.64 266.595 1057.64 261.822V261.822Z" fill="#505050"/>
<circle cx="886.243" cy="571.195" r="74.8815" fill="#F7EE0E" stroke="black" stroke-width="6"/>
<path d="M892.077 526.046L933.741 598.211C936.435 602.878 933.068 608.711 927.679 608.711H844.35C838.961 608.711 835.593 602.878 838.288 598.211L879.952 526.046C882.647 521.379 889.382 521.379 892.077 526.046Z" fill="#F7EE0E" stroke="black" stroke-width="6"/>
<path d="M890.978 559.673C890.978 572.805 889.44 587.48 886.301 587.48C883.162 587.48 881.696 572.466 881.696 559.673C881.696 548.399 882.441 533.791 886.301 533.791C890.161 533.791 890.978 547.704 890.978 559.673Z" fill="black"/>
<circle cx="886.243" cy="597.939" r="4.79693" fill="black"/>
<g filter="url(#filter0_d_135_94)">
<path fill-rule="evenodd" clip-rule="evenodd" d="M229.566 498.584C219.3 498.584 209.776 507.723 209.776 520.532V636.9C209.776 649.708 219.3 658.847 229.566 658.847H338.165C348.43 658.847 357.954 649.708 357.954 636.9V538.751C357.954 533.02 362.6 528.374 368.331 528.374C374.062 528.374 378.708 533.02 378.708 538.751V636.9C378.708 659.797 361.22 679.602 338.165 679.602H229.566C206.51 679.602 189.022 659.797 189.022 636.9V520.532C189.022 497.635 206.51 477.83 229.566 477.83H323.365C329.097 477.83 333.743 482.476 333.743 488.207C333.743 493.938 329.097 498.584 323.365 498.584H229.566Z" fill="black"/>
</g>
<g filter="url(#filter1_d_135_94)">
<path fill-rule="evenodd" clip-rule="evenodd" d="M320.995 456.735C320.984 449.441 326.888 443.527 334.182 443.527L369.971 443.527C370.218 443.527 370.464 443.527 370.709 443.527C377.529 443.526 383.81 443.526 388.813 444.135C394.02 444.768 400.744 446.339 405.841 451.924C410.709 457.257 411.966 463.986 412.496 469.209C413.03 474.478 413.03 481.171 413.029 488.772L413.029 523.151C413.029 530.446 407.116 536.35 399.822 536.339C392.528 536.327 386.614 530.405 386.614 523.111L386.614 489.395C386.614 480.93 386.598 475.604 386.216 471.835C386.158 471.269 386.097 470.797 386.037 470.405C385.919 470.389 385.794 470.373 385.661 470.357C382.454 469.966 377.822 469.943 370.012 469.943L334.223 469.943C326.928 469.943 321.006 464.029 320.995 456.735Z" fill="black"/>
</g>
<path d="M400.195 455.397C411.067 463.055 383.051 487.894 349.363 520.893C319.134 550.504 302.713 568.469 297.46 562.841C292.207 557.212 306.962 546.186 338.472 509.301C370.537 475.837 393.563 446.146 400.195 455.397Z" fill="black"/>
<path fill-rule="evenodd" clip-rule="evenodd" d="M390.879 458.751C390.88 458.75 390.874 458.776 390.856 458.829C390.868 458.778 390.878 458.751 390.879 458.751ZM338.472 509.301C328.655 520.792 320.465 529.774 313.999 536.864C310.881 540.283 308.164 543.262 305.859 545.871C304.082 547.883 302.549 549.675 301.267 551.278C296.592 557.123 295.241 560.463 297.46 562.841C299.432 564.954 302.98 563.741 308.242 559.833C309.953 558.562 311.846 557.006 313.926 555.187C320.132 549.756 327.998 541.979 337.652 532.435C341.298 528.829 345.2 524.972 349.363 520.893C353.216 517.12 356.994 513.453 360.648 509.906C388.95 482.438 409.824 462.179 400.195 455.397C395.036 448.201 379.959 464.567 358.424 487.942C352.273 494.618 345.596 501.867 338.472 509.301ZM398.261 466.189C398.298 466.174 398.316 466.168 398.315 466.169C398.315 466.17 398.297 466.177 398.261 466.189Z" fill="black"/>
<path d="M1068.42 1313.66C1038.71 1304.18 1025.54 1293.48 1013.28 1285.16C1010.88 1269.83 1013.34 1246.59 1014.87 1236.88C1017.23 1221.95 1019.54 1202.43 1042.39 1163.39C1044.47 1159.84 1047.59 1156.97 1051.36 1155.31C1060.26 1151.38 1069.66 1148.21 1090.91 1143.45C1091.6 1143.45 1095.07 1151.52 1096.72 1155.56C1107.76 1153.35 1132.84 1153.03 1147.1 1155.56C1147.49 1154.46 1149.18 1150.57 1152.88 1143.76C1157.55 1142.77 1185.05 1152.42 1198.22 1157.36C1234.03 1217.59 1232.67 1248.51 1230.79 1285.09C1208.34 1302.66 1181.63 1312.02 1175.28 1313.77C1172.95 1312.29 1162.63 1293.82 1163.59 1294.19C1164.54 1294.56 1182.53 1285.41 1182.21 1285.09C1181.89 1284.77 1181.47 1285.04 1177.32 1281.45C1123 1309.68 1066.55 1281.21 1066.45 1281.45C1066.38 1281.65 1063.41 1283.99 1061.94 1285.14C1061.77 1285.34 1065.27 1287.45 1080.54 1294.36C1074.55 1305.94 1076.94 1301.54 1068.42 1313.66Z" fill="#5467F2"/>
<path d="M1123.04 1106.95H1129.6C1124.14 1129.2 1120.74 1139.65 1128.74 1158.7C1136.75 1177.75 1115.1 1158.7 1115.1 1158.7C1113.33 1138.43 1116.54 1128.26 1123.04 1106.95Z" fill="#5467F2"/>
<path d="M1046.76 1233.94C1046.76 1208.05 1069.34 1188.27 1095.18 1189.91C1113.93 1191.09 1130.58 1191.23 1147.89 1190.3C1173.99 1188.89 1197.08 1208.62 1197.08 1234.77V1234.77C1197.08 1256.39 1181.07 1274.94 1159.5 1276.58C1134.77 1278.46 1112.5 1278.34 1085.22 1276.28C1063.28 1274.63 1046.76 1255.94 1046.76 1233.94V1233.94Z" fill="#A0A0A0" fill-opacity="0.26"/>
<ellipse cx="1085.24" cy="1237.16" rx="20.1175" ry="24.1889" fill="#D9D9D9"/>
<ellipse cx="1158.29" cy="1237.16" rx="19.878" ry="22.5124" fill="#D9D9D9"/>
<path d="M1116.45 1102.84C1116.27 1102.53 1116.27 1102.15 1116.45 1101.84L1120.63 1094.61C1120.8 1094.3 1121.13 1094.11 1121.49 1094.11H1129.85C1130.2 1094.11 1130.53 1094.3 1130.71 1094.61L1134.89 1101.84C1135.07 1102.15 1135.07 1102.53 1134.89 1102.84L1130.71 1110.08C1130.53 1110.39 1130.2 1110.58 1129.85 1110.58H1121.49C1121.13 1110.58 1120.8 1110.39 1120.63 1110.08L1116.45 1102.84Z" fill="#8F8F8F"/>
<circle cx="1125.67" cy="1102.34" r="4.58356" fill="#D9D9D9"/>
<path fill-rule="evenodd" clip-rule="evenodd" d="M1169.35 522.165C1172.41 520.012 1176.65 520.656 1178.93 523.664L1192 540.904C1194.33 543.979 1193.73 548.361 1190.66 550.694C1190.66 550.695 1190.66 550.696 1190.65 550.697L1188.13 552.617C1184.11 555.681 1181.27 559.489 1180.85 563.714C1180.35 568.881 1181.22 573.798 1183.29 578.429C1184.61 581.39 1187.41 583.654 1190.95 585.144L1195.1 586.889C1198.65 588.387 1200.32 592.486 1198.83 596.043L1190.43 615.982C1188.94 619.533 1184.85 621.203 1181.3 619.72C1175.23 617.257 1168.69 617.372 1163.82 620.765C1161.1 622.659 1158.49 624.774 1156 627.035C1152.68 630.054 1151.2 634.721 1151.8 639.498L1152.09 641.836C1152.57 645.667 1149.86 649.162 1146.03 649.644L1124.56 652.342C1120.73 652.823 1117.24 650.109 1116.75 646.278L1116.36 643.16C1115.74 638.241 1114.16 633.955 1111.01 631.336C1106.8 627.839 1102 625.991 1097.3 625.147C1094.77 624.693 1092.01 625.539 1089.57 627.37L1083.12 632.212C1083.12 632.214 1083.12 632.215 1083.12 632.217C1080.04 634.543 1075.66 633.938 1073.33 630.864L1060.26 613.624C1057.93 610.548 1058.53 606.163 1061.61 603.831L1067.2 599.593C1070.34 597.21 1072.65 594.558 1073.38 591.512C1074.74 585.838 1073.49 580.357 1069.75 574.577C1068.24 572.24 1065.73 570.52 1062.72 569.438L1057 567.379L1056.92 567.346C1053.36 565.848 1051.69 561.749 1053.19 558.191L1061.58 538.253C1063.08 534.695 1067.18 533.025 1070.74 534.523C1076.97 537.147 1083.86 536.963 1089.04 533.418C1091.5 531.739 1093.79 529.967 1095.89 528.114C1099.42 524.998 1100.88 520.001 1100.23 514.798L1099.9 512.193L1099.9 511.986C1099.91 510.459 1100.42 508.837 1101.34 507.509C1102.28 506.154 1103.83 504.862 1105.99 504.591L1127.45 501.893C1131.28 501.412 1134.77 504.122 1135.26 507.948C1135.26 507.951 1135.26 507.954 1135.26 507.956L1135.67 511.105C1136.46 517.146 1137.92 521.65 1141.72 523.692C1145.18 525.552 1149.62 527.317 1153.5 528.369C1155.45 528.896 1157.15 529.215 1158.45 529.306C1159.1 529.351 1159.57 529.333 1159.88 529.289C1159.98 529.274 1160.05 529.258 1160.09 529.248C1163.93 526.612 1168.2 523.094 1168.92 522.492C1169.01 522.422 1169.16 522.296 1169.35 522.165ZM1182.5 616.808L1183.72 613.905C1184.07 614.053 1184.48 613.888 1184.62 613.537L1193.02 593.599C1193.17 593.247 1193 592.843 1192.65 592.695L1188.51 590.95C1184.09 589.091 1179.73 585.919 1177.54 580.998C1175.04 575.415 1173.97 569.403 1174.58 563.099C1175.24 556.406 1179.61 551.19 1184.32 547.606L1186.84 545.679L1186.85 545.677C1187.15 545.446 1187.21 545.013 1186.98 544.71L1173.91 527.47C1173.69 527.178 1173.28 527.111 1172.98 527.31C1172.98 527.31 1172.98 527.311 1172.98 527.312C1172.97 527.318 1172.96 527.327 1172.95 527.338C1172.21 527.954 1167.68 531.692 1163.55 534.516C1162.64 535.136 1161.63 535.403 1160.77 535.525C1159.88 535.652 1158.94 535.655 1158.01 535.59C1156.15 535.46 1154.02 535.035 1151.86 534.449C1147.52 533.274 1142.63 531.333 1138.73 529.241C1131.87 525.552 1130.2 517.88 1129.42 511.918L1129.01 508.749L1129.01 508.742C1128.96 508.364 1128.62 508.096 1128.24 508.143L1106.77 510.842C1106.77 510.842 1106.77 510.842 1106.77 510.842C1106.77 510.842 1106.76 510.846 1106.74 510.86C1106.7 510.889 1106.61 510.96 1106.52 511.097C1106.42 511.235 1106.34 511.408 1106.28 511.594C1106.24 511.708 1106.22 511.809 1106.21 511.891L1106.48 514.013C1107.32 520.727 1105.53 528.01 1100.06 532.838C1097.75 534.874 1095.25 536.804 1092.6 538.618C1085.27 543.631 1076.04 543.589 1068.29 540.329C1067.94 540.181 1067.54 540.346 1067.39 540.698L1058.99 560.636C1058.85 560.972 1059 561.356 1059.32 561.519L1064.85 563.509C1068.74 564.908 1072.56 567.333 1075.04 571.152C1079.49 578.021 1081.35 585.252 1079.51 592.975C1078.28 598.129 1074.58 601.902 1071.01 604.613L1065.42 608.851C1065.11 609.082 1065.05 609.515 1065.28 609.818L1078.35 627.058C1078.58 627.362 1079.02 627.422 1079.32 627.192L1079.32 627.187L1085.79 622.333C1089.22 619.755 1093.71 618.104 1098.41 618.947C1103.95 619.941 1109.83 622.159 1115.04 626.491C1120 630.615 1121.92 636.825 1122.61 642.375L1123 645.493C1123.05 645.871 1123.4 646.139 1123.78 646.091L1145.24 643.393C1145.62 643.346 1145.89 643 1145.84 642.622L1145.55 640.283C1144.73 633.803 1146.69 626.982 1151.77 622.372C1154.43 619.951 1157.26 617.663 1160.22 615.597C1167.32 610.65 1176.24 610.863 1183.68 613.89L1182.5 616.808Z" fill="black"/>
<path fill-rule="evenodd" clip-rule="evenodd" d="M1102.43 595C1112.29 608.013 1130.84 610.565 1143.85 600.7C1156.86 590.835 1159.42 572.289 1149.55 559.276C1139.69 546.262 1121.14 543.71 1108.13 553.575C1095.11 563.44 1092.56 581.987 1102.43 595ZM1097.41 598.805C1109.37 614.591 1131.87 617.687 1147.66 605.72C1163.44 593.753 1166.54 571.256 1154.57 555.47C1142.61 539.684 1120.11 536.588 1104.32 548.555C1088.54 560.522 1085.44 583.02 1097.41 598.805Z" fill="black"/>
<path d="M634.988 965.518C634.988 988.015 629.485 1008.36 620.615 1023.06C611.74 1037.77 599.547 1046.76 586.172 1046.76C572.797 1046.76 560.604 1037.77 551.728 1023.06C542.858 1008.36 537.356 988.015 537.356 965.518C537.356 943.571 542.592 923.674 551.084 909.064C552.732 906.229 554.892 904.637 557.415 903.819C559.958 902.994 562.897 902.946 566.103 903.263C568.543 903.504 571.099 903.952 573.725 904.411C574.554 904.556 575.389 904.703 576.231 904.844C579.721 905.431 583.288 905.93 586.738 905.872C590.269 905.813 593.831 905.286 597.272 904.726C597.727 904.652 598.179 904.577 598.629 904.503C601.596 904.014 604.452 903.543 607.143 903.361C610.238 903.153 613.06 903.332 615.516 904.283C617.956 905.227 620.07 906.948 621.734 909.892C629.946 924.422 634.988 943.984 634.988 965.518Z" fill="#323232" stroke="black"/>
<ellipse cx="586.172" cy="846.136" rx="42.6368" ry="44.0167" fill="#323232"/>
<mask id="path-31-inside-1_135_94" fill="white">
<path d="M685.262 846.136C709.67 846.136 729.456 832.697 729.456 816.12C729.456 799.543 709.67 786.104 685.262 786.104C660.854 786.104 640.581 801.26 641.068 816.12C641.068 819.833 645.188 823.354 643.875 826.669C643.871 826.678 643.867 826.687 643.863 826.696L638.21 839.529C636.438 843.553 640.935 847.494 645.188 845.643L646.06 845.264C653.823 841.886 662.631 842.583 670.874 844.509C675.384 845.564 680.225 846.136 685.262 846.136Z"/>
</mask>
<path d="M641.068 816.12H645.068V816.055L645.066 815.989L641.068 816.12ZM643.875 826.669L647.525 828.304L647.561 828.224L647.593 828.142L643.875 826.669ZM643.863 826.696L640.202 825.084L640.202 825.084L643.863 826.696ZM638.21 839.529L634.55 837.917L634.55 837.917L638.21 839.529ZM645.188 845.643L643.592 841.976L643.592 841.976L645.188 845.643ZM646.06 845.264L647.656 848.932L646.06 845.264ZM725.456 816.12C725.456 822.69 721.537 829.096 714.264 834.036C707.013 838.961 696.771 842.136 685.262 842.136V850.136C698.16 850.136 710.016 846.592 718.759 840.654C727.481 834.73 733.456 826.128 733.456 816.12H725.456ZM685.262 790.104C696.771 790.104 707.013 793.28 714.264 798.205C721.537 803.144 725.456 809.55 725.456 816.12H733.456C733.456 806.113 727.481 797.511 718.759 791.587C710.016 785.648 698.16 782.104 685.262 782.104V790.104ZM645.066 815.989C644.884 810.454 648.636 804.063 656.125 798.815C663.49 793.655 673.853 790.104 685.262 790.104V782.104C672.263 782.104 660.286 786.131 651.534 792.264C642.906 798.309 636.764 806.926 637.07 816.251L645.066 815.989ZM647.593 828.142C648.986 824.626 647.32 821.337 646.552 819.777C646.043 818.743 645.692 818.092 645.399 817.368C645.127 816.697 645.068 816.324 645.068 816.12H637.068C637.068 817.773 637.523 819.232 637.983 820.368C638.422 821.453 639.018 822.585 639.375 823.31C640.339 825.268 640.076 825.397 640.156 825.196L647.593 828.142ZM647.523 828.309C647.524 828.307 647.525 828.305 647.525 828.304L640.224 825.035C640.216 825.051 640.209 825.067 640.202 825.084L647.523 828.309ZM641.871 841.142L647.523 828.309L640.202 825.084L634.55 837.917L641.871 841.142ZM643.592 841.976C642.983 842.24 642.428 842.09 642.076 841.781C641.902 841.629 641.84 841.49 641.823 841.423C641.814 841.39 641.794 841.317 641.871 841.142L634.55 837.917C632.857 841.76 634.256 845.566 636.803 847.798C639.319 850.002 643.139 850.897 646.783 849.311L643.592 841.976ZM644.464 841.596L643.592 841.976L646.783 849.311L647.656 848.932L644.464 841.596ZM685.262 842.136C680.526 842.136 675.991 841.598 671.785 840.614L669.964 848.405C674.777 849.53 679.923 850.136 685.262 850.136V842.136ZM647.656 848.932C654.234 846.07 662.009 846.545 669.964 848.405L671.785 840.614C663.252 838.62 653.411 837.703 644.464 841.596L647.656 848.932Z" fill="black" mask="url(#path-31-inside-1_135_94)"/>
<path d="M663.146 809.004H706.315M663.146 824.928H689.576" stroke="black" stroke-width="4" stroke-linecap="round"/>
<path d="M534.072 466.227C531.299 466.227 529.052 468.475 529.052 471.248V478.034C529.052 480.807 531.299 483.055 534.072 483.055H546.781C546.781 526.891 564.936 563.423 590.258 571.562C591.687 572.022 592.891 573.211 593.158 574.688V574.688C594.274 580.837 588.719 585.222 582.956 587.641C560.394 597.112 546.781 626.005 546.781 674.377H534.072C531.299 674.377 529.052 676.624 529.052 679.397V686.184C529.052 688.957 531.299 691.204 534.072 691.204H667.914C670.687 691.204 672.935 688.957 672.935 686.184V679.397C672.935 676.624 670.687 674.377 667.914 674.377H655.206C655.206 625.628 641.732 597.159 619.377 587.714C613.735 585.33 608.414 580.977 609.417 574.934V574.934C609.669 573.414 610.923 572.186 612.412 571.789C637.376 565.128 655.206 535.733 655.206 483.055H667.914C670.687 483.055 672.935 480.807 672.935 478.034V471.248C672.935 468.475 670.687 466.227 667.914 466.227H534.072Z" fill="#E6E6E6"/>
<path d="M546.966 483.055C546.966 526.891 565.121 563.423 590.443 571.562C591.872 572.022 593.076 573.211 593.343 574.688C594.459 580.837 588.904 585.222 583.141 587.641C560.579 597.111 546.966 626.005 546.966 674.377H551.879C551.879 626.005 565.492 597.111 588.055 587.641C593.817 585.222 599.372 580.837 598.257 574.688C597.989 573.211 596.786 572.022 595.356 571.562C570.034 563.423 551.879 526.891 551.879 483.055H546.966Z" fill="#E0E0E0"/>
<path d="M655.814 481.796H646.333C646.333 534.474 632.057 564.763 607.736 571.424C606.285 571.821 605.064 573.049 604.818 574.569C603.841 580.611 609.025 584.964 614.522 587.348C636.28 596.784 645.469 626.433 645.494 675.097H655.275C655.25 626.433 642.007 596.784 620.249 587.348C614.753 584.964 609.569 580.611 610.546 574.569C610.792 573.049 612.013 571.821 613.463 571.424C637.707 564.784 655.704 534.157 655.814 481.796Z" fill="#E8E8E8"/>
<path d="M637.16 666.982C637.702 666.982 638.147 666.572 638.135 666.031V666.031C638.126 665.629 637.919 665.238 637.592 665.006C624.612 655.806 622.576 640.667 613.929 632.028C607.139 625.245 595.389 625.629 588.187 631.972C578.108 640.849 576.094 656.149 564.016 665.426C563.92 665.499 563.862 665.648 563.861 665.769V665.769C563.85 666.469 564.409 666.982 565.109 666.982H637.16Z" fill="#A57A3B"/>
<rect x="529.052" y="674.377" width="143.883" height="16.8278" rx="8.41388" fill="#585050"/>
<rect x="529.052" y="466.227" width="143.883" height="16.8278" rx="8.41388" fill="#585050"/>
<path d="M590.926 547.159C582.642 547.159 578.353 553.656 585.085 558.484C591.3 562.941 598.776 566.419 600.993 566.419C603.45 566.419 611.539 562.912 618.12 558.373C624.939 553.669 620.661 547.159 612.377 547.159L590.926 547.159Z" fill="#A57A3B"/>
<ellipse cx="601.651" cy="604.024" rx="2.14084" ry="2.84323" fill="#A57A3B"/>
<ellipse cx="601.651" cy="614.737" rx="2.14084" ry="2.84323" fill="#A57A3B"/>
<path d="M629.464 602.213C634.175 608.298 634.769 615.156 631.262 619.412V619.412C622.594 625.603 603.634 606.478 611.191 598.971C611.322 598.841 611.474 598.709 611.648 598.574C615.992 595.21 624.753 596.129 629.464 602.213Z" fill="#EDEDED"/>
<path d="M333.463 842.005C333.463 850.013 330.538 857.328 325.712 862.911H375.798C380.881 862.911 385.001 867.09 385.001 872.245V923.674C390.292 919.518 396.933 917.045 404.144 917.045C421.426 917.045 435.435 931.252 435.435 948.778C435.435 966.304 421.426 980.511 404.144 980.511C396.933 980.511 390.292 978.038 385.001 973.882V1024.94C385.001 1030.09 380.881 1034.27 375.798 1034.27H348.286C340.311 1034.27 334.935 1024.7 334.935 1016.72V1016.72C334.935 999.199 320.926 984.991 303.644 984.991C286.362 984.991 272.353 999.199 272.353 1016.72V1016.72C272.353 1024.7 266.976 1034.27 259.002 1034.27H225.232C220.149 1034.27 216.028 1030.09 216.028 1024.94V975.223C211.073 978.565 205.124 980.511 198.726 980.511C181.445 980.511 167.435 966.304 167.435 948.778C167.435 931.252 181.445 917.045 198.726 917.045C205.124 917.045 211.073 918.992 216.028 922.333V872.245C216.028 867.09 220.149 862.911 225.232 862.911H278.63C273.805 857.328 270.88 850.013 270.88 842.005C270.88 824.479 284.89 810.271 302.171 810.271C319.453 810.271 333.463 824.479 333.463 842.005Z" fill="#2C2321"/>
<path d="M313.725 1104.47C314.767 1104.11 315.9 1104.1 316.947 1104.45L456.394 1150.95C465.449 1153.97 465.529 1166.75 456.512 1169.88L316.941 1218.37C315.898 1218.73 314.765 1218.74 313.718 1218.39L174.272 1171.89C165.216 1168.87 165.136 1156.09 174.153 1152.96L313.725 1104.47Z" fill="#505050"/>
<path d="M215.005 1203.3C211.764 1202.2 208.405 1204.61 208.405 1208.03V1289.18C208.405 1299.8 215.117 1309.33 225.241 1312.54C291.222 1333.48 335.627 1333.12 405.075 1312.34C415.441 1309.24 422.405 1299.59 422.405 1288.77V1206.18C422.405 1202.72 418.982 1200.31 415.727 1201.47L316.32 1236.89C316.068 1237.01 314.769 1237.02 314.49 1236.89L215.005 1203.3Z" fill="#505050"/>
<path d="M443.405 1164.09H454.405V1225.09H443.405V1164.09Z" fill="#505050"/>
<path d="M448.405 1214.09L459.733 1234.36C460.478 1235.7 459.514 1237.34 457.987 1237.34H438.823C437.296 1237.34 436.332 1235.7 437.077 1234.36L448.405 1214.09Z" fill="#505050"/>
<path fill-rule="evenodd" clip-rule="evenodd" d="M789.791 856.62C789.791 850.83 794.482 846.136 800.268 846.136H994.313C1000.1 846.136 1004.79 850.83 1004.79 856.62V1017.65C1004.79 1023.44 1000.1 1028.14 994.313 1028.14H800.268C794.482 1028.14 789.791 1023.44 789.791 1017.65V856.62ZM800.268 854.523C799.111 854.523 798.173 855.462 798.173 856.62V1017.65C798.173 1018.81 799.111 1019.75 800.268 1019.75H994.313C995.471 1019.75 996.409 1018.81 996.409 1017.65V856.62C996.409 855.462 995.471 854.523 994.313 854.523H800.268Z" fill="#505050"/>
<path fill-rule="evenodd" clip-rule="evenodd" d="M789.791 861.08C789.791 852.827 796.358 846.136 804.459 846.136H990.122C998.223 846.136 1004.79 852.827 1004.79 861.08V869.192C1004.79 877.446 998.223 884.136 990.122 884.136H804.459C796.358 884.136 789.791 877.446 789.791 869.192V861.08ZM804.459 854.676C800.987 854.676 798.173 857.543 798.173 861.08V869.192C798.173 872.73 800.987 875.597 804.459 875.597H990.122C993.594 875.597 996.409 872.73 996.409 869.192V861.08C996.409 857.543 993.594 854.676 990.122 854.676H804.459Z" fill="#505050"/>
<path d="M874.791 921.636C874.791 932.406 865.836 941.136 854.791 941.136C843.745 941.136 834.791 932.406 834.791 921.636C834.791 910.867 843.745 902.136 854.791 902.136C865.836 902.136 874.791 910.867 874.791 921.636Z" fill="#505050"/>
<path d="M907.791 918.636C907.791 915.599 910.216 913.136 913.207 913.136H972.374C975.366 913.136 977.791 915.599 977.791 918.636C977.791 921.674 975.366 924.136 972.374 924.136H913.207C910.216 924.136 907.791 921.674 907.791 918.636Z" fill="#505050"/>
<path d="M907.791 950.136C907.791 946.823 910.216 944.136 913.207 944.136H972.374C975.366 944.136 977.791 946.823 977.791 950.136C977.791 953.45 975.366 956.136 972.374 956.136H913.207C910.216 956.136 907.791 953.45 907.791 950.136Z" fill="#505050"/>
<path d="M907.791 981.636C907.791 978.599 910.216 976.136 913.207 976.136H972.374C975.366 976.136 977.791 978.599 977.791 981.636C977.791 984.674 975.366 987.136 972.374 987.136H913.207C910.216 987.136 907.791 984.674 907.791 981.636Z" fill="#505050"/>
<path d="M890.606 988.792C891.67 993.255 887.987 997.136 883.406 997.136H825.203C820.623 997.136 816.939 993.258 817.963 988.785C822.169 970.411 836.47 953.136 853.862 953.136C871.257 953.136 886.227 970.415 890.606 988.792Z" fill="#505050"/>
<path d="M732.663 1309.59H762.663C764.872 1309.59 766.663 1311.38 766.663 1313.59V1322.09C766.663 1324.3 764.872 1326.09 762.663 1326.09H732.663C730.454 1326.09 728.663 1324.3 728.663 1322.09V1313.59C728.663 1311.38 730.454 1309.59 732.663 1309.59Z" fill="#A3A3A3" stroke="black" stroke-width="4"/>
<path d="M732.663 1282.59H762.663C769.291 1282.59 774.663 1287.96 774.663 1294.59V1300.59C774.663 1307.22 769.291 1312.59 762.663 1312.59H732.663C726.036 1312.59 720.663 1307.22 720.663 1300.59V1294.59C720.663 1287.96 726.036 1282.59 732.663 1282.59Z" fill="#A3A3A3" stroke="black" stroke-width="4"/>
<path d="M824.663 1192.1C824.663 1217.27 813.342 1239.7 795.689 1254.26C788.358 1260.31 782.745 1268.99 782.745 1278.89V1281.09C782.745 1288.27 776.924 1294.09 769.745 1294.09H727.194C720.014 1294.09 714.194 1288.27 714.194 1281.09V1280.15C714.194 1270.02 708.328 1261.19 700.72 1255.14C682.448 1240.61 670.663 1217.78 670.663 1192.1C670.663 1148.13 705.196 1112.59 747.663 1112.59C790.13 1112.59 824.663 1148.13 824.663 1192.1Z" fill="#F0F5D1" stroke="black" stroke-width="4"/>
<path fill-rule="evenodd" clip-rule="evenodd" d="M792.381 1210.38C794.456 1211.82 795.038 1214.65 793.669 1216.79L785.823 1229.07C784.423 1231.26 781.514 1231.9 779.323 1230.5C779.322 1230.5 779.321 1230.5 779.32 1230.5L777.52 1229.35C774.645 1227.53 771.576 1226.62 768.81 1227.34C765.427 1228.23 762.523 1229.92 760.079 1232.31C758.516 1233.84 757.739 1236.14 757.623 1238.72L757.487 1241.75C757.37 1244.34 755.169 1246.35 752.571 1246.24L738.015 1245.58C735.422 1245.46 733.414 1243.27 733.523 1240.68C733.664 1236.27 732.067 1232.17 728.788 1229.88C726.957 1228.61 725.011 1227.45 723.003 1226.4C720.32 1225.01 717.025 1225.16 714.147 1226.65L712.737 1227.38C710.429 1228.58 707.588 1227.68 706.39 1225.37L699.68 1212.44C698.483 1210.13 699.383 1207.29 701.691 1206.09L703.57 1205.11C706.534 1203.58 708.874 1201.58 709.794 1198.98C711.023 1195.5 711.07 1192.03 710.507 1188.87C710.204 1187.16 709.027 1185.62 707.301 1184.5L702.739 1181.56C702.737 1181.56 702.735 1181.56 702.733 1181.56C700.547 1180.15 699.908 1177.25 701.307 1175.06L709.153 1162.78C710.554 1160.59 713.465 1159.95 715.656 1161.35L719.638 1163.89C721.876 1165.32 724.09 1166.16 726.184 1165.91C730.086 1165.44 733.26 1163.38 736.039 1159.67C737.163 1158.17 737.667 1156.18 737.648 1154.03L737.614 1149.93L737.616 1149.87C737.734 1147.28 739.934 1145.27 742.532 1145.38L757.088 1146.04C759.686 1146.16 761.697 1148.36 761.58 1150.95C761.375 1155.5 763.097 1159.81 766.547 1162.26C768.18 1163.42 769.834 1164.46 771.494 1165.35C774.287 1166.86 777.785 1166.61 780.919 1164.99L782.489 1164.17L782.62 1164.13C783.587 1163.78 784.732 1163.72 785.786 1163.99C786.861 1164.27 788.039 1164.95 788.713 1166.25L795.423 1179.18C796.619 1181.49 795.721 1184.33 793.417 1185.53C793.415 1185.53 793.413 1185.53 793.412 1185.53L791.518 1186.52C787.883 1188.43 785.378 1190.4 784.974 1193.28C784.605 1195.9 784.527 1199.12 784.767 1201.82C784.888 1203.17 785.082 1204.32 785.328 1205.16C785.451 1205.58 785.572 1205.87 785.672 1206.06C785.706 1206.12 785.732 1206.16 785.748 1206.19C788.308 1208 791.526 1209.87 792.076 1210.19C792.14 1210.23 792.255 1210.29 792.381 1210.38ZM735.643 1240.76L737.762 1240.86C737.751 1241.11 737.949 1241.33 738.206 1241.34L752.762 1242C753.019 1242.01 753.236 1241.81 753.248 1241.55L753.384 1238.53C753.529 1235.31 754.517 1231.81 757.114 1229.28C760.061 1226.4 763.608 1224.32 767.736 1223.24C772.119 1222.09 776.434 1223.64 779.796 1225.77L781.603 1226.92L781.605 1226.92C781.821 1227.06 782.109 1227 782.247 1226.78L790.094 1214.5C790.226 1214.3 790.173 1214.02 789.978 1213.88C789.977 1213.88 789.977 1213.88 789.976 1213.88C789.97 1213.87 789.963 1213.87 789.952 1213.86C789.39 1213.54 785.971 1211.55 783.225 1209.6C782.622 1209.17 782.216 1208.59 781.939 1208.08C781.652 1207.55 781.43 1206.95 781.254 1206.35C780.903 1205.14 780.675 1203.7 780.541 1202.19C780.272 1199.18 780.358 1195.64 780.772 1192.69C781.503 1187.49 785.961 1184.65 789.547 1182.77L791.454 1181.77L791.458 1181.76C791.686 1181.65 791.775 1181.37 791.656 1181.14L784.946 1168.2C784.946 1168.2 784.947 1168.2 784.946 1168.2C784.946 1168.2 784.94 1168.2 784.927 1168.19C784.898 1168.17 784.835 1168.13 784.725 1168.1C784.616 1168.07 784.487 1168.06 784.356 1168.07C784.275 1168.07 784.206 1168.08 784.152 1168.09L782.873 1168.75C778.828 1170.85 773.808 1171.42 769.48 1169.09C767.656 1168.1 765.854 1166.98 764.09 1165.72C759.213 1162.26 757.086 1156.41 757.341 1150.76C757.352 1150.51 757.154 1150.29 756.897 1150.28L742.341 1149.62C742.096 1149.61 741.886 1149.79 741.858 1150.03L741.891 1153.99C741.915 1156.78 741.272 1159.76 739.436 1162.21C736.133 1166.62 731.999 1169.49 726.689 1170.12C723.145 1170.55 719.899 1169.09 717.353 1167.47L713.371 1164.92C713.155 1164.78 712.867 1164.85 712.729 1165.06L704.882 1177.34C704.744 1177.56 704.807 1177.85 705.024 1177.98L705.027 1177.99L709.601 1180.94C712.031 1182.5 714.122 1184.96 714.685 1188.12C715.348 1191.85 715.317 1196.09 713.795 1200.39C712.346 1204.49 708.868 1207.15 705.524 1208.88L703.645 1209.86C703.417 1209.97 703.328 1210.25 703.447 1210.48L710.157 1223.42C710.275 1223.64 710.555 1223.73 710.783 1223.62L712.193 1222.88C716.098 1220.86 720.865 1220.51 724.961 1222.64C727.112 1223.76 729.217 1225.01 731.214 1226.4C735.995 1229.73 737.941 1235.42 737.763 1240.83L735.643 1240.76Z" fill="black" fill-opacity="0.78"/>
<path fill-rule="evenodd" clip-rule="evenodd" d="M730.753 1185.08C724.831 1194.35 727.542 1206.66 736.81 1212.58C746.078 1218.51 758.393 1215.8 764.315 1206.53C770.238 1197.26 767.526 1184.94 758.259 1179.02C748.991 1173.1 736.676 1175.81 730.753 1185.08ZM727.178 1182.79C719.993 1194.04 723.283 1208.97 734.525 1216.16C745.768 1223.34 760.706 1220.05 767.891 1208.81C775.076 1197.57 771.786 1182.63 760.543 1175.45C749.301 1168.26 734.363 1171.55 727.178 1182.79Z" fill="black" fill-opacity="0.78"/>
<rect x="869.097" y="1198.14" width="5.19883" height="28" rx="2.59942" transform="rotate(97.2972 869.097 1198.14)" fill="#505050"/>
<rect x="855.087" y="1242.55" width="5.19883" height="28" rx="2.59942" transform="rotate(127.297 855.087 1242.55)" fill="#505050"/>
<rect x="829.729" y="1272.1" width="5.19883" height="28" rx="2.59942" transform="rotate(155.036 829.729 1272.1)" fill="#505050"/>
<rect x="625.663" y="1184.87" width="5.19883" height="28" rx="2.59942" transform="rotate(-87.89 625.663 1184.87)" fill="#505050"/>
<rect x="637.863" y="1142.18" width="5.19883" height="28" rx="2.59942" transform="rotate(-57.89 637.863 1142.18)" fill="#505050"/>
<rect x="661.694" y="1108.02" width="5.19883" height="28" rx="2.59942" transform="rotate(-27.89 661.694 1108.02)" fill="#505050"/>
<path d="M1161.85 905.257C1161.85 915.595 1153.46 923.977 1143.13 923.977C1132.79 923.977 1124.41 915.595 1124.41 905.257C1124.41 894.918 1132.79 886.537 1143.13 886.537C1153.46 886.537 1161.85 894.918 1161.85 905.257Z" fill="#505050"/>
<path d="M1180.38 969.773C1181.45 974.204 1177.73 978.056 1173.1 978.056H1114.22C1109.59 978.056 1105.86 974.206 1106.9 969.766C1111.15 951.525 1125.62 934.376 1143.21 934.376C1160.81 934.376 1175.95 951.53 1180.38 969.773Z" fill="#505050"/>
<path fill-rule="evenodd" clip-rule="evenodd" d="M1143.13 864.957C1103.64 864.957 1071.63 896.968 1071.63 936.457C1071.63 975.945 1103.64 1007.96 1143.13 1007.96C1182.61 1007.96 1214.63 975.945 1214.63 936.457C1214.63 896.968 1182.61 864.957 1143.13 864.957ZM1065.13 936.457C1065.13 893.378 1100.05 858.457 1143.13 858.457C1186.2 858.457 1221.13 893.378 1221.13 936.457C1221.13 979.535 1186.2 1014.46 1143.13 1014.46C1100.05 1014.46 1065.13 979.535 1065.13 936.457Z" fill="#505050"/>
<defs>
<filter id="filter0_d_135_94" x="185.022" y="477.83" width="197.687" height="209.772" filterUnits="userSpaceOnUse" color-interpolation-filters="sRGB">
<feFlood flood-opacity="0" result="BackgroundImageFix"/>
<feColorMatrix in="SourceAlpha" type="matrix" values="0 0 0 0 0 0 0 0 0 0 0 0 0 0 0 0 0 0 127 0" result="hardAlpha"/>
<feOffset dy="4"/>
<feGaussianBlur stdDeviation="2"/>
<feComposite in2="hardAlpha" operator="out"/>
<feColorMatrix type="matrix" values="0 0 0 0 0 0 0 0 0 0 0 0 0 0 0 0 0 0 0.25 0"/>
<feBlend mode="normal" in2="BackgroundImageFix" result="effect1_dropShadow_135_94"/>
<feBlend mode="normal" in="SourceGraphic" in2="effect1_dropShadow_135_94" result="shape"/>
</filter>
<filter id="filter1_d_135_94" x="316.995" y="443.527" width="100.034" height="100.812" filterUnits="userSpaceOnUse" color-interpolation-filters="sRGB">
<feFlood flood-opacity="0" result="BackgroundImageFix"/>
<feColorMatrix in="SourceAlpha" type="matrix" values="0 0 0 0 0 0 0 0 0 0 0 0 0 0 0 0 0 0 127 0" result="hardAlpha"/>
<feOffset dy="4"/>
<feGaussianBlur stdDeviation="2"/>
<feComposite in2="hardAlpha" operator="out"/>
<feColorMatrix type="matrix" values="0 0 0 0 0 0 0 0 0 0 0 0 0 0 0 0 0 0 0.25 0"/>
<feBlend mode="normal" in2="BackgroundImageFix" result="effect1_dropShadow_135_94"/>
<feBlend mode="normal" in="SourceGraphic" in2="effect1_dropShadow_135_94" result="shape"/>
</filter>
</defs>
</svg>
